<?xml version="1.0" encoding="UTF-8"?>
<svg version="1.1" xmlns="http://www.w3.org/2000/svg" width="1024" height="1024">
<path d="M0 0 C337.92 0 675.84 0 1024 0 C1024 337.92 1024 675.84 1024 1024 C686.08 1024 348.16 1024 0 1024 C0 686.08 0 348.16 0 0 Z " fill="#FDFEFE" transform="translate(0,0)"/>
<path d="M0 0 C337.92 0 675.84 0 1024 0 C1024 337.92 1024 675.84 1024 1024 C686.08 1024 348.16 1024 0 1024 C0 686.08 0 348.16 0 0 Z M136 38 C134.67368785 38.28623122 133.34697489 38.57062543 132.01953125 38.8515625 C99.81157989 46.61913177 71.28908807 69.27657385 54.03125 97.18359375 C47.31305083 108.5657735 41.848754 120.27745308 38.1875 133 C37.99260986 133.66225586 37.79771973 134.32451172 37.59692383 135.00683594 C33.23727988 151.18497698 33.70722807 167.88888384 33.73686353 184.49311074 C33.74107193 188.10145037 33.73361053 191.70977036 33.72771102 195.31810504 C33.71898448 201.6293144 33.71762422 207.94049129 33.72121429 214.25170517 C33.72653896 223.63722912 33.72040829 233.02272185 33.71213136 242.40824241 C33.69691518 260.14924348 33.69518386 277.89023023 33.69765439 295.63123646 C33.69948924 309.33443397 33.69772341 323.03762681 33.69342995 336.74082375 C33.69282754 338.71170659 33.69222634 340.68258943 33.69162634 342.65347228 C33.69071906 345.62365511 33.68981039 348.59383794 33.68889399 351.56402078 C33.68046796 379.16899903 33.67612633 406.77397553 33.68030071 434.37895489 C33.68045709 435.41896839 33.68061346 436.45898189 33.68077458 437.53051095 C33.68158032 442.80133431 33.6824261 448.07215766 33.68328788 453.342981 C33.68345897 454.38972383 33.68363006 455.43646665 33.68380633 456.51492895 C33.68415299 458.63169585 33.68450152 460.74846275 33.68485192 462.86522965 C33.69020819 495.79647554 33.68227992 528.72769465 33.66381836 561.65893555 C33.64308527 598.68516073 33.63237816 635.71136932 33.63639385 672.73760062 C33.63678917 676.68843289 33.63715072 680.63926516 33.63749123 684.59009743 C33.63758196 685.56284178 33.63767269 686.53558613 33.63776617 687.53780758 C33.63893034 702.19867587 33.63229758 716.85952737 33.62167931 731.52039146 C33.60960972 748.20179137 33.60808857 764.88315436 33.62046947 781.56455483 C33.62708141 790.889528 33.62550561 800.21441283 33.61188096 809.53937887 C33.60360013 815.78138332 33.60638086 822.023322 33.61785623 828.26532117 C33.62407689 831.8130105 33.62580741 835.36052824 33.61399289 838.90820726 C33.50225574 880.99035261 42.16471891 918.79361224 72 950 C72.598125 950.66128906 73.19625 951.32257812 73.8125 952.00390625 C89.39596626 968.62850926 110.67208236 979.37939492 132.375 985.375 C133.27766602 985.62572266 134.18033203 985.87644531 135.11035156 986.13476562 C145.16573372 988.78227732 155.05132169 989.14776158 165.41467476 989.13142776 C166.63536034 989.1334804 167.85604592 989.13553303 169.11372197 989.13764787 C172.49074275 989.14231573 175.86771007 989.14254859 179.24473008 989.14087028 C182.92308222 989.14013607 186.60142735 989.14516938 190.27977645 989.1494453 C197.57021543 989.15700839 204.86064708 989.15921749 212.15108957 989.15977435 C220.88569952 989.16068965 229.62030274 989.16736205 238.35490979 989.17412117 C259.46252952 989.19016548 280.57014852 989.19608241 301.67777326 989.20086992 C311.6652404 989.20320717 321.65270696 989.20680994 331.64017366 989.2105653 C365.83684709 989.22339864 400.03352021 989.23411862 434.230196 989.2375679 C436.37599023 989.23778953 438.52178446 989.23801132 440.66757869 989.23823325 C442.81850723 989.23845389 444.96943577 989.23867437 447.12036431 989.2388947 C451.4353861 989.23933725 455.75040789 989.23978437 460.06542969 989.24023438 C461.13530058 989.24034377 462.20517146 989.24045316 463.30746268 989.24056586 C498.00160633 989.24419686 532.69572909 989.26011966 567.38986474 989.28342474 C604.08210853 989.3080269 640.77434039 989.32174089 677.46659267 989.32293582 C681.49522392 989.32310727 685.52385517 989.3233227 689.55248642 989.32357025 C691.04039856 989.3236539 691.04039856 989.3236539 692.55836952 989.32373925 C708.51246579 989.32488926 724.4665406 989.3359069 740.42062963 989.35045731 C756.45882396 989.36483142 772.49699081 989.36805409 788.53518982 989.36001733 C798.05892415 989.35556563 807.58256968 989.35940333 817.10629232 989.37525584 C823.4746122 989.38502429 829.84287004 989.38380981 836.21118939 989.37381961 C839.83523368 989.36844108 843.45910776 989.36767352 847.08313777 989.38032833 C867.72555119 989.44839664 867.72555119 989.44839664 888 986 C888.99842363 985.76699228 889.99684727 985.53398455 891.02552617 985.29391599 C923.51516707 977.52787702 951.9036086 955.43928023 969.609375 927.48999023 C981.82940855 907.50950302 989.34680651 884.9749825 989.25447559 861.47065735 C989.25768207 860.24971672 989.26088855 859.02877608 989.26419219 857.77083725 C989.27103785 854.39768251 989.26900567 851.02474989 989.26313647 847.65160781 C989.25895021 843.97572411 989.26637715 840.29986028 989.27228898 836.62398148 C989.28103909 830.18648698 989.28236732 823.74902431 989.27878571 817.31152534 C989.27347355 807.73824436 989.27957926 798.16499411 989.28786864 788.59171646 C989.30310615 770.4967497 989.30481388 752.40179693 989.30234561 734.3068251 C989.30051238 720.33032146 989.3022732 706.3538224 989.30657005 692.37731934 C989.30717246 690.36872478 989.30777366 688.36013023 989.30837366 686.35153568 C989.30928092 683.32467027 989.31018959 680.29780487 989.31110601 677.27093946 C989.31953551 649.12832914 989.32387134 620.98572054 989.31969929 592.84310913 C989.31954291 591.78223793 989.31938654 590.72136673 989.31922542 589.62834792 C989.31841965 584.25155936 989.31757388 578.87477081 989.31671212 573.49798226 C989.31654103 572.43015713 989.31636994 571.362332 989.31619367 570.26214853 C989.31584701 568.10274526 989.31549848 565.943342 989.31514808 563.78393874 C989.30979279 530.19562976 989.31771586 496.60734705 989.33618164 463.01904297 C989.35691005 425.27102605 989.36762259 387.52302541 989.36360615 349.77500248 C989.36321082 345.74773725 989.36284927 341.72047202 989.36250877 337.69320679 C989.36241804 336.70161413 989.36232731 335.71002148 989.36223383 334.68838056 C989.36106904 319.73508743 989.36770727 304.78181075 989.37832069 289.82852173 C989.39038471 272.81426965 989.39191796 255.80005374 989.37953053 238.78580111 C989.37291312 229.27158193 989.37450708 219.75744932 989.38811904 210.2432371 C989.39638922 203.87746211 989.39363277 197.51175167 989.38214377 191.14598188 C989.3759126 187.5258728 989.37422043 183.90593209 989.38600711 180.285833 C989.49766391 143.4825027 982.80743884 109.42896276 958 81 C957.19046875 80.04609375 956.3809375 79.0921875 955.546875 78.109375 C935.2753428 54.72204719 905.51587577 39.5040117 875 35 C870.82631818 34.73164013 866.66727813 34.7292978 862.48603439 34.74552441 C861.25461938 34.74231793 860.02320437 34.73911145 858.75447375 34.73580781 C855.34731587 34.72895416 851.9403774 34.73099955 848.53323196 34.73686353 C844.8222996 34.74104521 841.11138703 34.73362544 837.40045953 34.72771102 C830.90002636 34.71895613 824.39962469 34.71763438 817.89918709 34.72121429 C808.2325688 34.72652381 798.56598099 34.72042346 788.89936601 34.71213136 C770.62966955 34.69689034 752.35998694 34.69518642 734.09028545 34.69765439 C719.98165924 34.69948707 705.87303757 34.69772796 691.76441193 34.69342995 C689.73740195 34.69282755 687.71039197 34.69222635 685.68338199 34.69162634 C682.62885833 34.69071909 679.57433467 34.68981042 676.51981101 34.68889399 C648.11963082 34.6804642 619.71945235 34.67612893 591.31927109 34.68030071 C589.71328038 34.68053528 589.71328038 34.68053528 588.07484542 34.68077458 C582.64832693 34.68158036 577.22180845 34.68242613 571.79528996 34.68328788 C570.71756887 34.68345897 569.63984777 34.68363006 568.52946846 34.68380633 C566.35005432 34.68415298 564.17064018 34.68450151 561.99122604 34.68485192 C528.08089171 34.69020891 494.17058338 34.68227943 460.26025391 34.66381836 C422.15997524 34.64310053 384.05971269 34.63237526 345.95942807 34.63639385 C341.8965691 34.63678919 337.83371012 34.63715074 333.77085114 34.63749123 C332.77047596 34.63758196 331.77010079 34.63767269 330.73941122 34.63776617 C315.64013812 34.63893197 300.54088128 34.63228517 285.44161224 34.62167931 C268.26799262 34.60962869 251.09440883 34.60806674 233.92078868 34.62046947 C224.31220863 34.62709827 214.70371426 34.62546652 205.09514107 34.61188096 C198.67281416 34.60363344 192.25055139 34.60633795 185.82822968 34.61785623 C182.17170246 34.62410964 178.51534235 34.62572133 174.85882482 34.61399289 C170.91157649 34.60144884 166.96458128 34.61231456 163.01733017 34.62526989 C161.3320595 34.61430587 161.3320595 34.61430587 159.61274296 34.60312036 C151.44009599 34.65862599 143.92727415 36.0768579 136 38 Z " fill="#FEFEFE" transform="translate(0,0)"/>
<path d="M0 0 C1.84013264 -0.00352835 1.84013264 -0.00352835 3.71743968 -0.00712797 C7.12548174 -0.01264144 10.53347223 -0.01369089 13.94151515 -0.01285056 C17.64831154 -0.01302038 21.35509955 -0.01893012 25.06189173 -0.02409142 C32.41532536 -0.03341074 39.76875297 -0.03733834 47.12219177 -0.03961039 C55.92988005 -0.04257422 64.73756035 -0.05127272 73.54524445 -0.06002467 C94.83444538 -0.08086315 116.12364769 -0.0913381 137.41285644 -0.10015428 C147.48598293 -0.10436181 157.55910882 -0.10958367 167.6322348 -0.11483881 C202.11930089 -0.13272887 236.60636716 -0.14772433 271.09343719 -0.155159 C273.25833032 -0.15563375 275.42322344 -0.15610964 277.58811657 -0.15658666 C279.19849159 -0.15694122 279.19849159 -0.15694122 280.84139943 -0.15730295 C286.28062487 -0.15850414 291.7198503 -0.15971959 297.15907574 -0.16094494 C298.23850282 -0.16118509 299.31792991 -0.16142524 300.4300669 -0.16167267 C335.4212976 -0.16956417 370.41249439 -0.19299301 405.40371028 -0.22550088 C442.40532744 -0.25981366 479.40692475 -0.27951149 516.40855807 -0.28280324 C520.47209721 -0.28322077 524.53563633 -0.28370033 528.59917545 -0.28422642 C529.59972043 -0.28434961 530.60026542 -0.2844728 531.63112994 -0.28459973 C547.71983017 -0.28692998 563.80849095 -0.30258019 579.89717713 -0.32306826 C596.07580285 -0.34334365 612.25438128 -0.34879546 628.43301735 -0.33929763 C638.03854845 -0.33408931 647.64392192 -0.33992851 657.24943027 -0.3618323 C663.67492972 -0.37537425 670.10032108 -0.37423352 676.5258217 -0.36143034 C680.18097616 -0.35455621 683.83583004 -0.35378593 687.49095724 -0.37099043 C706.13094223 -0.45338363 723.02433497 0.60219697 740.55385113 7.38422108 C741.33655376 7.68159168 742.1192564 7.97896229 742.9256773 8.28534412 C777.49858256 21.79889711 803.09061855 48.2830639 818.11342144 81.92987537 C824.79982824 97.93677954 827.02328484 115.20338314 827.0005722 132.41746807 C827.00292443 133.63610102 827.00527667 134.85473396 827.00770018 136.11029518 C827.01320151 139.48624086 827.0142645 142.86213438 827.01342277 146.23808088 C827.01359293 149.91357554 827.01950651 153.58906181 827.02466363 157.26455224 C827.0339722 164.55154721 827.03790873 171.83853611 827.04018259 179.12553629 C827.0431492 187.85536484 827.05184926 196.58518536 827.06059687 205.31500969 C827.08142315 226.41371151 827.09190807 247.51241471 827.10072648 268.61112441 C827.10493544 278.59535979 827.11015708 288.57959456 827.11541101 298.56382943 C827.1332993 332.75150129 827.14829477 366.93917333 827.1557312 401.12684917 C827.15620596 403.27242162 827.15668184 405.41799407 827.15715886 407.56356651 C827.15751343 409.15955381 827.15751343 409.15955381 827.15787515 410.78778327 C827.15907633 416.17832765 827.16029179 421.56887202 827.16151714 426.95941639 C827.16175729 428.02917789 827.16199744 429.09893938 827.16224487 430.2011179 C827.17013682 464.88098201 827.19356749 499.5608119 827.22607309 534.24066108 C827.26038971 570.91973459 827.28008401 607.59878809 827.28337544 644.27787793 C827.28379297 648.30629771 827.28427253 652.33471748 827.28479862 656.36313725 C827.28492181 657.3550229 827.28504501 658.34690856 827.28517193 659.36885135 C827.28750158 675.31405003 827.30314833 691.25920889 827.32364047 707.2043934 C827.34392072 723.23940587 827.34936534 739.27437064 827.33986983 755.30939357 C827.33466357 764.8280756 827.34049098 774.34659851 827.36240451 783.86525756 C827.37595481 790.23407126 827.37479842 796.60277597 827.36200255 802.97159086 C827.35513397 806.59351436 827.35433873 810.21513463 827.37156264 813.83703052 C827.55482331 854.95327649 815.19569488 889.11602821 786.17885113 918.89203358 C762.39890871 941.46882414 730.4851553 954.32220828 697.81243992 954.26285553 C696.59431708 954.26460857 695.37619425 954.2663616 694.1211586 954.26816776 C690.73735872 954.27202037 687.35361315 954.27139806 683.96981554 954.26888999 C680.28937587 954.26725611 676.60894195 954.27139843 672.92850411 954.27479917 C666.47698381 954.27995328 660.02547101 954.28137035 653.57394886 954.28034306 C643.98006594 954.27881913 634.38619133 954.2829777 624.79231002 954.28821768 C606.66044879 954.29789409 588.52859039 954.30070204 570.39672689 954.30127474 C556.39433354 954.30173412 542.39194129 954.30379161 528.3895483 954.30697536 C524.36028262 954.3078729 520.33101694 954.30876271 516.30175126 954.30965024 C514.79925164 954.30998181 514.79925164 954.30998181 513.2663985 954.31032009 C485.08663669 954.31647532 456.90687527 954.32042055 428.72711277 954.31997681 C427.6644262 954.31996123 426.60173962 954.31994565 425.50685042 954.3199296 C420.12061079 954.31984649 414.73437116 954.31974745 409.34813152 954.31964489 C407.74351901 954.31961497 407.74351901 954.31961497 406.10649008 954.31958445 C403.94321054 954.31954401 401.77993101 954.31950222 399.61665147 954.31945906 C365.96192464 954.31884635 332.30720789 954.32635168 298.65248394 954.34003162 C260.84815619 954.35539193 223.04383505 954.36399787 185.23950398 954.3630684 C181.20835217 954.36299377 177.17720036 954.36294506 173.14604855 954.36291409 C172.15346535 954.36290243 171.16088216 954.36289078 170.13822069 954.36287877 C154.16384635 954.36284799 138.18948075 954.36923435 122.21510901 954.37784635 C106.159801 954.38632295 90.10450578 954.38731274 74.04919676 954.38073703 C64.51153545 954.37704134 54.973913 954.3788743 45.4362558 954.38867937 C39.06237365 954.39467816 32.68851965 954.393385 26.31463879 954.38620887 C22.6849324 954.38232652 19.05530125 954.38155416 15.42560016 954.38966622 C11.5087999 954.39834304 7.59211207 954.39143403 3.67530918 954.38311005 C2.55793692 954.38807823 1.44056466 954.39304641 0.28933263 954.39816514 C-32.40963838 954.25134134 -62.29387849 941.02389197 -86.13364887 919.13422108 C-87.06693012 918.29504139 -88.00021137 917.4558617 -88.96177387 916.59125233 C-110.60625668 896.15267642 -123.32095492 867.37465086 -127.13364887 838.13422108 C-127.26419055 837.18160435 -127.26419055 837.18160435 -127.39736943 836.20974283 C-128.20216202 829.81581438 -128.27540218 823.49501456 -128.26507664 817.05679321 C-128.26712927 815.86040872 -128.2691819 814.66402423 -128.27129674 813.43138567 C-128.27596874 810.11782949 -128.27619633 806.80432773 -128.27451915 803.49077233 C-128.27378553 799.88289633 -128.2788169 796.27502751 -128.28309417 792.66715461 C-128.29066086 785.51452089 -128.29286655 778.36189465 -128.29342322 771.20925735 C-128.29433819 762.64019706 -128.3010097 754.07114366 -128.30777005 745.50208634 C-128.32381932 724.7915806 -128.32973225 704.08107561 -128.3345188 683.37056477 C-128.33685596 673.56937138 -128.34045876 663.76817858 -128.34421417 653.96698565 C-128.35704914 620.4041157 -128.36776805 586.84124607 -128.37121677 553.27837372 C-128.37143841 551.17202401 -128.37166019 549.0656743 -128.37188213 546.95932459 C-128.37210276 544.84793954 -128.37232325 542.7365545 -128.37254357 540.62516946 C-128.37298612 536.38949851 -128.37343324 532.15382757 -128.37388325 527.91815662 C-128.37399264 526.86795884 -128.37410203 525.81776106 -128.37421473 524.7357391 C-128.37784427 490.69339485 -128.39376071 456.65107192 -128.41707361 422.60873583 C-128.4416869 386.60156415 -128.45539032 350.59440464 -128.45658469 314.5872243 C-128.45675614 310.63208822 -128.45697157 306.67695214 -128.45721912 302.72181606 C-128.45727489 301.74797879 -128.45733066 300.77414151 -128.45738812 299.77079401 C-128.4585373 284.11962833 -128.46954804 268.46848456 -128.48410618 252.81732626 C-128.49849481 237.07579551 -128.50169483 221.33429277 -128.4936662 205.59275725 C-128.489221 196.24983301 -128.49302599 186.90699938 -128.50890471 177.5640871 C-128.5186961 171.3111493 -128.517437 165.05827457 -128.50746848 158.80533726 C-128.50210625 155.25045621 -128.50126875 151.69574839 -128.5139772 148.1408821 C-128.61616047 112.93646463 -123.30994731 80.67449248 -101.13364887 52.13422108 C-100.38083637 51.16097889 -99.62802387 50.1877367 -98.85239887 49.18500233 C-78.24387239 23.3184785 -47.3056153 4.9398881 -14.35361514 0.34895996 C-9.58381228 -0.11242639 -4.78757744 -0.00623277 0 0 Z M-92.13364887 50.13422108 C-116.09790396 78.80062581 -122.97075764 112.14191813 -122.76358392 148.83874653 C-122.7488338 152.46512712 -122.76370488 156.09142301 -122.7744689 159.71780127 C-122.78931786 166.04673045 -122.7859623 172.37543637 -122.770051 178.70436001 C-122.74645563 188.11597428 -122.75188395 197.52742309 -122.7627599 206.93905277 C-122.78127347 223.75458876 -122.77169584 240.57001821 -122.75028227 257.38554545 C-122.73167983 272.09851313 -122.72330727 286.81144512 -122.72485065 301.52442455 C-122.72494233 302.50272343 -122.72503401 303.48102232 -122.72512846 304.48896662 C-122.72552165 308.46076458 -122.72597129 312.43256253 -122.72649985 316.40436047 C-122.73136351 353.61005007 -122.70875722 390.81567642 -122.67254362 428.02134637 C-122.64054126 461.04132484 -122.62850279 494.06124935 -122.63462543 527.08124256 C-122.63501228 529.20235742 -122.63539874 531.32347229 -122.6357848 533.44458715 C-122.63597615 534.49325216 -122.6361675 535.54191717 -122.63636464 536.62235991 C-122.63731905 541.90175161 -122.63823341 547.18114333 -122.63910389 552.46053505 C-122.63927768 553.50219335 -122.63945148 554.54385166 -122.63963054 555.61707536 C-122.64398968 583.25300166 -122.63396323 610.88892217 -122.61926603 638.52484435 C-122.61874589 639.50842677 -122.61822575 640.49200919 -122.61768985 641.50539714 C-122.6171705 642.48713466 -122.61665116 643.46887218 -122.61611608 644.48035931 C-122.61559834 645.4602456 -122.6150806 646.4401319 -122.61454717 647.44971171 C-122.61349908 649.42300432 -122.61243887 651.39629693 -122.61136645 653.36958952 C-122.60399905 667.10034929 -122.60189519 680.83110081 -122.60336045 694.56186231 C-122.60520939 712.25673246 -122.59708262 729.95155184 -122.57171899 747.64640544 C-122.55859756 756.99384559 -122.55351771 766.34120476 -122.56035753 775.68865211 C-122.56408823 781.94404917 -122.55678497 788.19937276 -122.54076515 794.45475021 C-122.53195084 798.01073966 -122.52760853 801.56656344 -122.53669232 805.12255607 C-122.61597044 847.23542077 -113.46764727 882.54053565 -83.32114887 913.25922108 C-65.67484409 930.74360754 -43.58792628 941.74520048 -19.37368669 946.666694 C-17.90253532 946.97374377 -16.43521286 947.29987514 -14.97292705 947.64669801 C-8.19724232 949.17530715 -1.72215292 949.41601492 5.20573235 949.38869667 C6.41827565 949.39190315 7.63081896 949.39510963 8.880106 949.39841327 C12.2343447 949.40526579 15.58836047 949.40322227 18.94258653 949.39735755 C22.59616718 949.39317521 26.24972773 949.40059601 29.90330344 949.40651006 C36.30307022 949.41526427 42.70280499 949.41658693 49.10257626 949.41300678 C58.61955881 949.40769688 68.13651041 949.41379802 77.6534896 949.42208972 C95.64077102 949.43733033 113.62803836 949.43903468 131.61532488 949.43656669 C145.50655118 949.4347339 159.39777288 949.43649333 173.2889986 949.44079113 C175.2848796 949.44139353 177.28076059 949.44199473 179.27664158 949.44259473 C182.28427613 949.44350199 185.29191067 949.44441066 188.29954521 949.44532708 C216.26389774 949.45375688 244.22824854 949.45809216 272.19260216 949.45392036 C273.24682595 949.45376399 274.30104974 949.45360761 275.3872197 949.4534465 C280.73040819 949.45264072 286.07359667 949.45179495 291.41678514 949.4509332 C293.00853649 949.45067656 293.00853649 949.45067656 294.63244443 949.45041475 C296.77838365 949.45006809 298.92432287 949.44971956 301.07026209 949.44936916 C334.45697344 949.44401261 367.84365838 949.45194038 401.2303648 949.47040272 C438.74431233 949.49112308 476.25824349 949.5018453 513.77219707 949.49782723 C517.77300632 949.49743189 521.77381557 949.49707034 525.77462482 949.49672985 C526.75971792 949.49663912 527.74481101 949.49654839 528.75975541 949.49645491 C543.62523182 949.49528935 558.4906917 949.50193413 573.35616398 949.51254177 C590.26551906 949.5245956 607.17483775 949.52615067 624.08419337 949.5137516 C633.54370405 949.50712552 643.00312768 949.50874828 652.46263139 949.52234012 C658.78686924 949.53059303 665.111042 949.52787613 671.43527458 949.51636485 C675.03495831 949.51011674 678.63447237 949.50848592 682.2341462 949.52022818 C702.25412511 949.65601606 702.25412511 949.65601606 721.86635113 946.13422108 C722.86469107 945.89074839 723.86303101 945.64727571 724.89162368 945.39642507 C758.14340431 937.24627559 786.0172511 915.7994175 803.76869488 886.76312733 C816.2064823 865.66503899 822.03330669 841.57401995 822.0005722 817.18542767 C822.00410055 815.39348049 822.00410055 815.39348049 822.00770018 813.56533235 C822.01320651 810.2520179 822.01426392 806.93875655 822.01342277 803.62544124 C822.01359279 800.0195341 822.01950482 796.41363553 822.02466363 792.8077327 C822.03397671 785.65681303 822.0379095 778.50589956 822.04018259 771.35497458 C822.04314809 762.78867321 822.0518476 754.22238002 822.06059687 745.65608294 C822.08142942 724.95003487 822.09190969 704.24398537 822.10072648 683.53792926 C822.10493519 673.73830459 822.11015692 663.93868053 822.11541101 654.13905637 C822.13330128 620.5807488 822.14829589 587.02244106 822.1557312 553.46412945 C822.15620596 551.35774742 822.15668184 549.25136539 822.15715886 547.14498336 C822.15739524 546.10042671 822.15763162 545.05587006 822.15787515 543.97966018 C822.15907633 538.68759323 822.16029179 533.3955263 822.16151714 528.10345936 C822.16187737 526.52813063 822.16187737 526.52813063 822.16224487 524.92097708 C822.17013423 490.88592246 822.19355852 456.85090273 822.22607309 422.81586335 C822.26040184 386.81593152 822.28008521 350.81602009 822.28337544 314.81607163 C822.28379297 310.8608841 822.28427252 306.90569659 822.28479862 302.95050907 C822.28492181 301.97666014 822.28504501 301.00281121 822.28517193 299.99945171 C822.28750028 284.35326662 822.30313994 268.70712216 822.32364047 253.06095153 C822.34393675 237.32037944 822.34935783 221.57985595 822.33986983 205.8392732 C822.33466949 196.49896868 822.34046269 187.15882643 822.36240451 177.8185454 C822.37597964 171.56476875 822.37477681 165.31110297 822.36200255 159.05732505 C822.35515017 155.50354675 822.35428166 151.95007712 822.37156264 148.39632724 C822.52765442 109.00294068 813.90976737 72.96304612 785.79213238 44.06000233 C784.81940591 43.08221452 783.8442899 42.10679577 782.86635113 41.13422108 C782.05553082 40.32340076 781.2447105 39.51258045 780.40931988 38.67718983 C765.78630182 24.83018599 746.87643521 14.62114403 727.55385113 9.13422108 C726.5893504 8.85904652 726.5893504 8.85904652 725.6053648 8.57831287 C709.42422668 4.43263296 692.7939126 4.8396824 676.2272822 4.86488325 C672.59752018 4.86818108 668.96778045 4.85984169 665.33802581 4.85306489 C658.98923823 4.8428048 652.64048111 4.83991412 646.29168606 4.84197712 C636.85033317 4.84503747 627.40901379 4.83668038 617.96766743 4.82622787 C600.12150377 4.80692134 582.27535163 4.80126093 564.42917874 4.80011375 C550.64540412 4.79919351 536.86163399 4.79507083 523.07786083 4.7887125 C519.10555514 4.78691733 515.13324945 4.7851377 511.16094375 4.78336275 C510.17333262 4.78292065 509.18572149 4.78247855 508.16818274 4.78202306 C480.40244838 4.76972099 452.63671557 4.76182131 424.87097836 4.76270962 C423.30187312 4.76275635 423.30187312 4.76275635 421.70106878 4.76280403 C416.39953127 4.76297024 411.09799376 4.76316832 405.79645625 4.76337345 C404.21718758 4.76343329 404.21718758 4.76343329 402.60601449 4.76349433 C400.4769063 4.7635752 398.34779811 4.7636588 396.21868991 4.76374511 C363.09276256 4.76497064 329.96687615 4.74995454 296.8409605 4.72259998 C259.59756714 4.69185776 222.35420068 4.67466872 185.11079383 4.67652643 C181.13723071 4.67667568 177.1636676 4.6767731 173.19010448 4.67683506 C172.21176011 4.67685837 171.23341573 4.67688168 170.22542456 4.67690569 C154.50490046 4.67696715 138.78441201 4.66421443 123.0638985 4.64697053 C107.25712162 4.62999091 91.45039672 4.62805849 75.64361575 4.64118917 C66.26286114 4.64856231 56.88226477 4.6449694 47.50152703 4.62530449 C41.2236183 4.61326007 34.94582356 4.61594484 28.66791994 4.63024549 C25.09886422 4.63797095 21.53011358 4.63967036 17.96107998 4.62333079 C-24.96449685 4.43969448 -62.99991516 17.2582765 -92.13364887 50.13422108 Z " fill="#E1E1E1" transform="translate(162.1336488723755,34.86577892303467)"/>
<path d="M0 0 C1 3 1 3 0.5625 6.1875 C-1.12034578 18.70510627 -1.29159734 30.48877822 6.5390625 41.08203125 C13.2198611 48.34858707 23.39562699 54.29224742 33.33984375 55.21777344 C35.74867079 55.26679027 38.15325555 55.2616561 40.5625 55.25 C55.86668641 55.62434905 69.78368787 62.59638331 81.08203125 72.8984375 C84.38360492 76.42299327 86.65958035 80.09466476 88.875 84.375 C96.32515228 98.64460384 110.05659713 109.91913438 124.5 116.625 C127 118 127 118 128.375 119.6875 C130.38960297 127.14153098 128.71441321 134.35367662 125 141 C122.27687924 143.84713385 119.34256083 145.93582208 116 148 C115.01 148.66 114.02 149.32 113 150 C107.8825031 151.7058323 103.03262199 150.67754066 98 149 C91.5344416 148.63418551 85.15274986 148.5965852 78.8125 150 C65.60110247 152.72460572 51.02523946 152.53486129 39.375 145.3125 C31.60869055 139.74161371 26.15062684 133.62053266 22 125 C26.1476662 137.13036045 32.33357791 145.4490063 43.54296875 151.84375 C49.39334484 154.59686816 54.19746514 155.2959564 60.5625 155.1875 C61.34737793 155.18105469 62.13225586 155.17460938 62.94091797 155.16796875 C69.65561464 155.08049865 76.31639197 154.66127571 83 154 C80.11106159 156.90579992 77.19813236 159.78287889 74.2578125 162.63671875 C67.07689284 169.64670524 60.22767164 176.36738 55 185 C53.44340111 187.54531805 51.87957785 190.0861215 50.3125 192.625 C49.89959717 193.29660156 49.48669434 193.96820312 49.0612793 194.66015625 C45.75917288 199.95855032 42.18398309 205.00730534 38.4375 210 C37.91260986 210.7007666 37.38771973 211.4015332 36.84692383 212.12353516 C35.59297028 213.77099572 34.30040581 215.38895359 33 217 C32.67 217 32.34 217 32 217 C31.98582031 216.04222656 31.97164063 215.08445312 31.95703125 214.09765625 C31.31948889 192.5552913 23.54237804 173.92139665 9 158 C7.97132813 156.84951172 7.97132813 156.84951172 6.921875 155.67578125 C-4.88849055 143.14367114 -19.77900493 135.59524604 -35 128 C-31.83630619 125.89087079 -29.10841312 124.98204098 -25.5 123.8125 C-12.03637691 119.16500776 -0.22664031 110.48237871 7 98 C6.32195312 97.98582031 5.64390625 97.97164063 4.9453125 97.95703125 C-5.52303526 97.42056468 -12.93924082 93.92418242 -20.10546875 86.26171875 C-29 75.64329897 -29 75.64329897 -29 72 C-17.76473177 68.70588994 -6.19539121 66.6598004 4.57421875 72.36328125 C8.55503322 74.70527867 12.33690442 77.18546555 16 80 C16.144375 79.21625 16.28875 78.4325 16.4375 77.625 C17 75 17 75 18 73 C17.28457031 72.73316406 16.56914062 72.46632813 15.83203125 72.19140625 C4.48501814 67.41783522 -4.11907449 60.00526993 -8.9375 48.625 C-13.50201693 36.6489454 -13.01140425 25.8676661 -8 14 C-5.57495629 9.19122094 -2.82888706 4.5797759 0 0 Z " fill="#2E934A" transform="translate(215,387)"/>
<path d="M0 0 C6.49784464 1.94819203 12.39687751 4.49325614 18.375 7.6875 C19.20572021 8.12956787 20.03644043 8.57163574 20.89233398 9.02709961 C41.75320833 20.32970818 58.55692144 36.58189427 66.1328125 59.4140625 C70.43902046 75.92816098 70.0826346 92.52365321 66 109 C61.55039712 104.94609683 58.56874119 100.49174106 55.4375 95.375 C54.3753108 93.66386953 53.31280184 91.95293752 52.25 90.2421875 C51.71117187 89.37045898 51.17234375 88.49873047 50.6171875 87.60058594 C49.07489257 85.12043413 47.51184027 82.65521917 45.9375 80.1953125 C38.97352031 69.30640633 32.38312413 58.23893936 26 47 C36.24762866 69.17731758 47.74557908 90.59739677 59.79174805 111.84301758 C60.55854969 113.21191887 61.29830555 114.5966111 62 116 C41.91694169 112.77236563 22.04754341 100.3526948 10.0625 84 C6.76101513 78.91955969 4.23787233 73.62178308 2 68 C1.61714844 67.06414062 1.23429688 66.12828125 0.83984375 65.1640625 C-2.15876846 57.14626785 -2.83348263 49.49932424 -3 41 C-3.02578125 40.05833984 -3.0515625 39.11667969 -3.078125 38.14648438 C-3.4079984 25.05875711 -3.19164625 12.7475871 0 0 Z " fill="#339048" transform="translate(170,521)"/>
<path d="M0 0 C1.35158203 0.04568115 1.35158203 0.04568115 2.73046875 0.09228516 C3.76107422 0.15101807 3.76107422 0.15101807 4.8125 0.2109375 C4.84690186 0.93047607 4.88130371 1.65001465 4.91674805 2.39135742 C5.90451108 21.52333199 7.0595095 36.99673654 21.4375 50.8984375 C32.04474628 59.59159423 42.7629283 59.97359371 55.8125 59.2109375 C56.49747559 59.17129883 57.18245117 59.13166016 57.88818359 59.09082031 C61.5366392 58.86443314 65.17489911 58.57084148 68.8125 58.2109375 C65.92356159 61.11673742 63.01063236 63.99381639 60.0703125 66.84765625 C52.88939284 73.85764274 46.04017164 80.5783175 40.8125 89.2109375 C39.25590111 91.75625555 37.69207785 94.297059 36.125 96.8359375 C35.71209717 97.50753906 35.29919434 98.17914062 34.8737793 98.87109375 C31.57167288 104.16948782 27.99648309 109.21824284 24.25 114.2109375 C23.72510986 114.9117041 23.20021973 115.6124707 22.65942383 116.33447266 C21.40547028 117.98193322 20.11290581 119.59989109 18.8125 121.2109375 C18.4825 121.2109375 18.1525 121.2109375 17.8125 121.2109375 C17.79832031 120.25316406 17.78414063 119.29539062 17.76953125 118.30859375 C17.13198889 96.7662288 9.35487804 78.13233415 -5.1875 62.2109375 C-5.87328125 61.44394531 -6.5590625 60.67695312 -7.265625 59.88671875 C-19.07599055 47.35460864 -33.96650493 39.80618354 -49.1875 32.2109375 C-46.02380619 30.10180829 -43.29591312 29.19297848 -39.6875 28.0234375 C-26.54266165 23.48598619 -15.66862557 15.4258141 -8.1875 3.5859375 C-5.75749805 0.09900449 -4.18233248 -0.18331652 0 0 Z " fill="#095D43" transform="translate(229.1875,482.7890625)"/>
<path d="M0 0 C1 3 1 3 0.5625 6.1875 C-1.12034578 18.70510627 -1.29159734 30.48877822 6.5390625 41.08203125 C13.2198611 48.34858707 23.39562699 54.29224742 33.33984375 55.21777344 C35.74867079 55.26679027 38.15325555 55.2616561 40.5625 55.25 C55.86668641 55.62434905 69.78368787 62.59638331 81.08203125 72.8984375 C84.38360492 76.42299327 86.65958035 80.09466476 88.875 84.375 C96.4128481 98.8125715 110.81319249 111.22094935 126 117 C126 117.33 126 117.66 126 118 C114.17773384 119.22581101 104.0332621 115.12324478 94.9375 107.875 C91.49452854 105.06266003 88.15353776 102.14100182 84.828125 99.19140625 C67.46746468 83.87397251 50.12456987 76.86055937 27 75.1875 C17.91598473 74.48743717 12.25273965 71.68485311 5 66 C4.14792969 65.37867188 3.29585937 64.75734375 2.41796875 64.1171875 C-5.33898882 57.96822279 -9.30873635 49.38897862 -12 40 C-13.7314066 24.67906484 -7.79232544 12.61524531 0 0 Z " fill="#81C13D" transform="translate(215,387)"/>
<path d="M0 0 C6.49784464 1.94819203 12.39687751 4.49325614 18.375 7.6875 C19.20572021 8.12956787 20.03644043 8.57163574 20.89233398 9.02709961 C41.75320833 20.32970818 58.55692144 36.58189427 66.1328125 59.4140625 C70.43902046 75.92816098 70.0826346 92.52365321 66 109 C61.55035896 104.94606207 58.56890182 100.49167304 55.4375 95.375 C54.37395825 93.6625987 53.31014873 91.95036368 52.24609375 90.23828125 C51.70710449 89.3663916 51.16811523 88.49450195 50.61279297 87.59619141 C49.08131215 85.13089213 47.53205143 82.67818498 45.97265625 80.23046875 C40.10301404 71.01690916 34.3808308 61.73156651 28.83203125 52.32055664 C28.12240234 51.12354126 28.12240234 51.12354126 27.3984375 49.90234375 C26.98255371 49.19585693 26.56666992 48.48937012 26.13818359 47.76147461 C24.9913191 45.85121707 24.9913191 45.85121707 23 44 C23 43.01 23 42.02 23 41 C22.34 41 21.68 41 21 41 C19.68253667 38.41909233 18.37090383 35.83549542 17.0625 33.25 C16.68931641 32.52039063 16.31613281 31.79078125 15.93164062 31.0390625 C15.39506836 29.97558594 15.39506836 29.97558594 14.84765625 28.890625 C14.51773682 28.24125977 14.18781738 27.59189453 13.84790039 26.92285156 C13 25 13 25 12.50952148 22.81933594 C12.25730835 21.91876465 12.25730835 21.91876465 12 21 C11.34 20.67 10.68 20.34 10 20 C8.5593979 17.49774936 7.19750409 15.00072788 5.875 12.4375 C5.31619141 11.37112305 5.31619141 11.37112305 4.74609375 10.28320312 C3.82559462 8.52481376 2.91213039 6.762745 2 5 C1.34 7.97 0.68 10.94 0 14 C-0.66 14 -1.32 14 -2 14 C-1.85795259 12.41632253 -1.71119847 10.83306682 -1.5625 9.25 C-1.48128906 8.36828125 -1.40007812 7.4865625 -1.31640625 6.578125 C-1.03709315 4.30224048 -0.57793339 2.21301184 0 0 Z " fill="#7ABA3E" transform="translate(170,521)"/>
<path d="M0 0 C4.929375 -0.061875 9.85875 -0.12375 14.9375 -0.1875 C16.47398193 -0.21481201 18.01046387 -0.24212402 19.59350586 -0.27026367 C29.55387403 -0.33062954 38.0240814 0.22488661 45.55859375 7.33984375 C49.54038426 11.92591683 50.51512514 16.8551704 50.28515625 22.734375 C49.4599905 29.29048643 46.79717767 34.41603022 42 39 C39.40796532 40.32183442 36.80024334 41.2261753 34 42 C33.38423096 42.17418457 32.76846191 42.34836914 32.1340332 42.52783203 C29.97470343 43.00559702 28.0981346 43.11437981 25.890625 43.09765625 C25.13652344 43.09443359 24.38242187 43.09121094 23.60546875 43.08789062 C22.82816406 43.07951172 22.05085938 43.07113281 21.25 43.0625 C20.45722656 43.05798828 19.66445313 43.05347656 18.84765625 43.04882812 C16.89840492 43.03708565 14.94919262 43.01915146 13 43 C13 48.28 13 53.56 13 59 C8.71 59 4.42 59 0 59 C0 39.53 0 20.06 0 0 Z " fill="#0C5F45" transform="translate(369,481)"/>
<path d="M0 0 C4.29 0 8.58 0 13 0 C13 7.26 13 14.52 13 22 C16.465 19.525 16.465 19.525 20 17 C25.60759479 15.925211 31.85758482 15.97690499 37.0625 18.5625 C41.43078054 22.18724343 43.97359706 26.3433243 45 32 C45.08220526 34.38943295 45.10745472 36.78104847 45.09765625 39.171875 C45.0962413 39.8542926 45.09482635 40.53671021 45.09336853 41.23980713 C45.08779084 43.40991684 45.07524254 45.5799217 45.0625 47.75 C45.05748211 49.22525892 45.05291971 50.70051947 45.04882812 52.17578125 C45.03868148 55.78392663 45.01910199 59.39184655 45 63 C40.38 63 35.76 63 31 63 C30.97421875 60.95296875 30.9484375 58.9059375 30.921875 56.796875 C30.88014511 54.80775005 30.83827597 52.81862535 30.79248047 50.82958984 C30.76430901 49.45048349 30.74307528 48.07121682 30.72900391 46.69189453 C30.70752455 44.70577051 30.65876868 42.72000091 30.609375 40.734375 C30.58842773 39.54038086 30.56748047 38.34638672 30.54589844 37.11621094 C29.8979237 33.41730685 28.99260028 32.20994083 26 30 C22.5 29.33333333 22.5 29.33333333 19 30 C16.63502561 31.86708505 15.33969285 33.32061431 14 36 C13.84621148 37.95774069 13.75028537 39.92017352 13.68359375 41.8828125 C13.64169922 43.04941406 13.59980469 44.21601562 13.55664062 45.41796875 C13.49766602 47.25294922 13.49766602 47.25294922 13.4375 49.125 C13.39431641 50.35605469 13.35113281 51.58710937 13.30664062 52.85546875 C13.20031377 55.90350512 13.09963028 58.95173739 13 62 C8.71 62 4.42 62 0 62 C0 41.54 0 21.08 0 0 Z " fill="#0C6145" transform="translate(522,478)"/>
<path d="M0 0 C5.04913703 2.84587723 8.58828899 6.38986698 10.4375 11.9375 C10.5220387 14.3785776 10.55355786 16.79009213 10.53515625 19.23046875 C10.5337413 19.93649734 10.53232635 20.64252594 10.53086853 21.36994934 C10.52527764 23.62167626 10.51272688 25.87330321 10.5 28.125 C10.49498382 29.65299335 10.49042112 31.18098827 10.48632812 32.70898438 C10.4753112 36.45186135 10.45805287 40.19466373 10.4375 43.9375 C6.4775 43.9375 2.5175 43.9375 -1.5625 43.9375 C-1.5625 42.6175 -1.5625 41.2975 -1.5625 39.9375 C-1.98917969 40.2984375 -2.41585938 40.659375 -2.85546875 41.03125 C-9.07183481 45.64545986 -15.00149636 46.00076614 -22.5625 44.9375 C-27.04165015 42.85237838 -29.75158976 40.56538172 -31.5625 35.9375 C-32.31084101 30.89867055 -32.48463548 27.25084448 -29.5 23 C-23.3253435 18.66460289 -18.5051345 17.48666492 -11.125 17.75 C-10.02768555 17.77030273 -10.02768555 17.77030273 -8.90820312 17.79101562 C-7.12597578 17.82596126 -5.34413427 17.87975195 -3.5625 17.9375 C-4.16433749 15.91704558 -4.83556096 13.91638961 -5.5625 11.9375 C-10.4309684 9.5032658 -17.63812522 10.46050339 -22.75 11.9375 C-23.678125 12.2675 -24.60625 12.5975 -25.5625 12.9375 C-26.23404933 11.64836513 -26.89958859 10.35609796 -27.5625 9.0625 C-27.93375 8.34320313 -28.305 7.62390625 -28.6875 6.8828125 C-29.5625 4.9375 -29.5625 4.9375 -29.5625 2.9375 C-20.48896593 -1.84478619 -9.91793232 -3.04581415 0 0 Z " fill="#0C6044" transform="translate(456.5625,496.0625)"/>
<path d="M0 0 C2.14576637 -0.02685938 4.29162645 -0.04633088 6.4375 -0.0625 C7.63246094 -0.07410156 8.82742188 -0.08570313 10.05859375 -0.09765625 C13 0 13 0 14 1 C14.12187499 3.02489827 14.17975234 5.05370829 14.2109375 7.08203125 C14.23929688 8.32404297 14.26765625 9.56605469 14.296875 10.84570312 C14.34872481 13.47837727 14.39306453 16.11121064 14.4296875 18.74414062 C14.460625 19.99001953 14.4915625 21.23589844 14.5234375 22.51953125 C14.54325684 23.66526611 14.56307617 24.81100098 14.58349609 25.99145508 C15.0389738 29.28152058 15.62598493 30.70337603 18 33 C21.45728358 33.75011367 21.45728358 33.75011367 25 33 C29.24939244 28.86243368 30.10321765 25.21312347 30.31640625 19.45703125 C30.35830078 18.38388672 30.40019531 17.31074219 30.44335938 16.20507812 C30.48267578 15.08552734 30.52199219 13.96597656 30.5625 12.8125 C30.60568359 11.68134766 30.64886719 10.55019531 30.69335938 9.38476562 C30.7994901 6.58998975 30.90025397 3.79501102 31 1 C35.29 1 39.58 1 44 1 C44 15.85 44 30.7 44 46 C39.71 46 35.42 46 31 46 C31 44.35 31 42.7 31 41 C30.34257813 41.54140625 30.34257813 41.54140625 29.671875 42.09375 C24.4872962 45.88734425 20.23864721 46.78318864 13.83984375 46.4765625 C9.42480302 45.73566158 7.01905443 44.22000191 4 41 C-1.35176768 33.29961485 -0.4522844 24.97875573 -0.25 16 C-0.22990643 14.44663758 -0.2116607 12.8932501 -0.1953125 11.33984375 C-0.15153679 7.55927021 -0.08266974 3.77991489 0 0 Z " fill="#0F6045" transform="translate(577,495)"/>
<path d="M0 0 C-0.81825274 3.65433265 -2.26434698 6.6796203 -4 10 C-4.54527344 9.855625 -5.09054687 9.71125 -5.65234375 9.5625 C-11.24959924 8.18471403 -16.23945745 7.81712563 -22 8 C-22.33 9.32 -22.66 10.64 -23 12 C-19.73663336 14.17557776 -17.50567223 14.62633878 -13.6875 15.375 C-7.04613159 16.83935517 -2.88124558 18.17813163 1 24 C1.83048469 29.07906951 1.60266184 32.93076124 -0.9375 37.4375 C-7.93446498 43.29210335 -15.39625765 43.5390356 -24.31640625 43.359375 C-29.25586655 42.87747643 -33.82571163 41.77358272 -38 39 C-39 36 -39 36 -38.22265625 34.17578125 C-37.1484375 32.45052083 -36.07421875 30.72526042 -35 29 C-32.38614362 29.44808967 -30.11728551 29.947697 -27.6875 31.03125 C-24.671462 32.11842649 -22.38041866 32.2019378 -19.1875 32.125 C-18.21167969 32.10695313 -17.23585938 32.08890625 -16.23046875 32.0703125 C-15.49441406 32.04710937 -14.75835937 32.02390625 -14 32 C-13.67 30.68 -13.34 29.36 -13 28 C-13.61746094 27.81824219 -14.23492187 27.63648438 -14.87109375 27.44921875 C-16.64622866 26.92235222 -18.41956401 26.3893983 -20.19140625 25.8515625 C-21.96641663 25.31338133 -23.74473865 24.78590203 -25.52734375 24.2734375 C-29.95486715 22.9326567 -33.11960554 21.84052595 -36 18 C-37.24283781 14.27148658 -37.5280726 10.87253239 -37 7 C-34.48157002 2.05641523 -31.60209696 -0.82128177 -26.29296875 -2.55859375 C-17.38615986 -4.2731924 -8.3093898 -3.49869044 0 0 Z " fill="#0C6045" transform="translate(513,498)"/>
<path d="M0 0 C4.6209371 2.66082649 6.89459424 6.37128273 8.5625 11.375 C8.6471817 13.88868055 8.67851885 16.37369374 8.66015625 18.88671875 C8.6587413 19.61494339 8.65732635 20.34316803 8.65586853 21.09346008 C8.65027659 23.41651539 8.63772562 25.73947388 8.625 28.0625 C8.61998396 29.63867048 8.61542123 31.21484248 8.61132812 32.79101562 C8.6003098 36.65238098 8.58305074 40.51367408 8.5625 44.375 C6.2525 44.375 3.9425 44.375 1.5625 44.375 C1.0675 41.9 1.0675 41.9 0.5625 39.375 C0.15 39.82875 -0.2625 40.2825 -0.6875 40.75 C-5.34245432 45.07245759 -10.12663167 44.79710875 -16.23046875 44.6875 C-20.80615705 44.24163512 -22.89115671 43.30458793 -26.4375 40.375 C-29.39798556 36.07752096 -30.25274066 32.53819086 -29.4375 27.375 C-26.66662228 22.81228803 -23.64658448 19.80888363 -18.4375 18.375 C-14.99519421 18.14408435 -11.57295741 18.18664531 -8.125 18.25 C-7.19365234 18.25902344 -6.26230469 18.26804687 -5.30273438 18.27734375 C-3.0140564 18.30081737 -0.72591328 18.33365271 1.5625 18.375 C1.2784062 16.91491181 0.98334378 15.45695461 0.68359375 14 C0.52044678 13.18789063 0.3572998 12.37578125 0.18920898 11.5390625 C-0.3053282 9.19891671 -0.3053282 9.19891671 -2.375 7.375 C-6.67978753 5.28783029 -10.7195559 4.72973944 -15.4375 5.375 C-17.6666122 6.2689872 -19.69154176 7.30560563 -21.7734375 8.5 C-23.4375 9.375 -23.4375 9.375 -25.4375 9.375 C-25.7675 7.395 -26.0975 5.415 -26.4375 3.375 C-25.167947 2.72665346 -23.89680294 2.08142185 -22.625 1.4375 C-21.91730469 1.07785156 -21.20960938 0.71820313 -20.48046875 0.34765625 C-14.11197032 -2.6843822 -6.46678684 -2.92950306 0 0 Z " fill="#84C64C" transform="translate(840.4375,496.625)"/>
<path d="M0 0 C4.51657458 3.31473928 8.50461623 7.81001316 9.8203125 13.3359375 C9.8203125 16.3059375 9.8203125 19.2759375 9.8203125 22.3359375 C-2.0596875 22.3359375 -13.9396875 22.3359375 -26.1796875 22.3359375 C-23.3874997 30.50103866 -23.3874997 30.50103866 -17.35546875 35.41796875 C-13.42830257 37.07485215 -9.36211672 36.78594571 -5.1796875 36.3359375 C-1.86163608 35.01164477 -1.86163608 35.01164477 0.8203125 33.3359375 C3.0703125 32.5234375 3.0703125 32.5234375 4.8203125 32.3359375 C5.4803125 32.9959375 6.1403125 33.6559375 6.8203125 34.3359375 C6.71484375 36.2890625 6.71484375 36.2890625 5.8203125 38.3359375 C0.12951776 42.86948467 -6.2308715 44.09690546 -13.3515625 43.75 C-20.26032955 42.73849543 -24.50880365 39.5513369 -28.953125 34.3125 C-33.10884592 27.61570132 -33.02345969 19.94728459 -32.1796875 12.3359375 C-29.81804642 5.81861899 -24.80766137 1.45225559 -18.9296875 -1.9765625 C-12.26119004 -3.64368687 -6.03314566 -3.44402242 0 0 Z " fill="#73BD40" transform="translate(729.1796875,497.6640625)"/>
<path d="M0 0 C6 0 6 0 7.76000977 1.47436523 C8.23237061 2.16216064 8.70473145 2.84995605 9.19140625 3.55859375 C9.73724365 4.32888916 10.28308105 5.09918457 10.84545898 5.89282227 C11.41208252 6.73256592 11.97870605 7.57230957 12.5625 8.4375 C13.79258297 10.18608442 15.0243923 11.9334555 16.2578125 13.6796875 C16.87817383 14.56881836 17.49853516 15.45794922 18.13769531 16.37402344 C20.96140112 20.35564112 23.94441745 24.20756025 26.9375 28.0625 C31.03696769 33.37270082 35.00513538 38.72921555 38.73046875 44.3125 C39.90925096 46.14041277 39.90925096 46.14041277 42 47 C42 31.49 42 15.98 42 0 C43.98 0 45.96 0 48 0 C48 19.47 48 38.94 48 59 C41 59 41 59 39.1105957 57.50976562 C38.63710693 56.81560547 38.16361816 56.12144531 37.67578125 55.40625 C37.12801025 54.63071777 36.58023926 53.85518555 36.01586914 53.05615234 C35.45375732 52.21262207 34.89164551 51.3690918 34.3125 50.5 C33.0894186 48.75199025 31.86544478 47.00460462 30.640625 45.2578125 C30.03283203 44.37512695 29.42503906 43.49244141 28.79882812 42.58300781 C26.14715171 38.77536171 23.36256046 35.07413783 20.5625 31.375 C20.07144775 30.71999512 19.58039551 30.06499023 19.07446289 29.39013672 C15.82936414 25.06518523 12.51502318 20.80186192 9.109375 16.6015625 C8 15 8 15 8 13 C7.34 13 6.68 13 6 13 C6 28.18 6 43.36 6 59 C4.02 59 2.04 59 0 59 C0 39.53 0 20.06 0 0 Z " fill="#70BC43" transform="translate(636,481)"/>
<path d="M0 0 C7.14360124 4.87855694 12.02265777 12.77325432 14.4375 21.0625 C16.1204373 32.84306108 14.29085913 42.49549406 7.30078125 52.41015625 C6.87152344 52.93480469 6.44226563 53.45945312 6 54 C1.66695924 53.35534798 -1.86672065 51.81074878 -5.8125 49.9375 C-6.97394531 49.38964844 -8.13539063 48.84179688 -9.33203125 48.27734375 C-10.21246094 47.85582031 -11.09289062 47.43429687 -12 47 C-11.23816406 46.24074219 -10.47632813 45.48148437 -9.69140625 44.69921875 C-2.40577184 37.39243591 3.07266132 30.53653499 3.4375 19.75 C3.19608762 13.01942295 1.5987967 6.5189032 0 0 Z " fill="#84C343" transform="translate(282,392)"/>
<path d="M0 0 C0 0.66 0 1.32 0 2 C1.26972656 2.3403125 2.53945312 2.680625 3.84765625 3.03125 C19.36140768 7.34070949 32.84311999 13.56315259 46 23 C46 23.33 46 23.66 46 24 C19.5398428 28.44308487 19.5398428 28.44308487 9 21 C2.90937483 16.00568736 -1.98069337 9.75745927 -6 3 C-6 2.34 -6 1.68 -6 1 C-3 0 -3 0 0 0 Z " fill="#5CAE45" transform="translate(192,458)"/>
<path d="M0 0 C2.31 0 4.62 0 7 0 C7 3.63 7 7.26 7 11 C11.29 11 15.58 11 20 11 C20 12.65 20 14.3 20 16 C15.71 16 11.42 16 7 16 C7.0934535 20.3786383 7.19952754 24.75673196 7.31738281 29.13476562 C7.35569998 30.62458889 7.39054808 32.11450554 7.421875 33.60449219 C7.46746729 35.74448048 7.52546874 37.88382436 7.5859375 40.0234375 C7.6173584 41.31169434 7.6487793 42.59995117 7.68115234 43.92724609 C7.68458268 47.10481505 7.68458268 47.10481505 10 49 C12.66949409 49.24315656 12.66949409 49.24315656 15.625 49.125 C16.62789062 49.10695313 17.63078125 49.08890625 18.6640625 49.0703125 C19.82035156 49.03550781 19.82035156 49.03550781 21 49 C21.33 50.65 21.66 52.3 22 54 C17.46198053 56.3422036 13.00115325 56.74427326 8 56 C4.41195098 53.86243888 2.47437308 51.87461006 1 48 C0.77294922 44.60839844 0.77294922 44.60839844 0.8046875 40.609375 C0.80893234 39.55245453 0.80893234 39.55245453 0.81326294 38.47418213 C0.82442199 36.2326124 0.84951807 33.99144814 0.875 31.75 C0.88503536 30.22656829 0.89416024 28.70313029 0.90234375 27.1796875 C0.92434709 23.45299414 0.95884728 19.72653667 1 16 C-1.64 16 -4.28 16 -7 16 C-7 14.35 -7 12.7 -7 11 C-4.69 11 -2.38 11 0 11 C0 7.37 0 3.74 0 0 Z " fill="#7FC34A" transform="translate(751,485)"/>
<path d="M0 0 C0.99 0.66 1.98 1.32 3 2 C3.33 1.34 3.66 0.68 4 0 C5.32 0 6.64 0 8 0 C8.08767555 3.37483413 8.14061628 6.74937215 8.1875 10.125 C8.21263672 11.07632813 8.23777344 12.02765625 8.26367188 13.0078125 C8.32003407 18.4185834 8.16650796 22.37940796 5 27 C1.64802157 29.23465229 0.42208754 29.27108649 -3.5 29.25 C-4.93859375 29.25773438 -4.93859375 29.25773438 -6.40625 29.265625 C-9 29 -9 29 -12 27 C-11.67 26.01 -11.34 25.02 -11 24 C-10.01 24.33 -9.02 24.66 -8 25 C-6.10529184 25.0685495 -4.2083166 25.08480372 -2.3125 25.0625 C-1.31863281 25.05347656 -0.32476563 25.04445313 0.69921875 25.03515625 C1.45847656 25.02355469 2.21773437 25.01195312 3 25 C3.33 22.69 3.66 20.38 4 18 C2.948125 18.7425 2.948125 18.7425 1.875 19.5 C-1.49395521 21.25771576 -3.25082097 21.54675527 -7 21 C-9.69990662 19.20006226 -11.5418865 17.916227 -13 15 C-13.55512815 10.36786507 -13.6364242 7.01827873 -11.125 3 C-7.48387384 -0.42694227 -4.93295572 -0.25962925 0 0 Z " fill="#357662" transform="translate(727,571)"/>
<path d="M0 0 C2.4375 1.5 2.4375 1.5 4 3 C4.33 2.01 4.66 1.02 5 0 C5.99 0 6.98 0 8 0 C8.1164862 3.72890255 8.18734576 7.45733514 8.25 11.1875 C8.30027344 12.77014648 8.30027344 12.77014648 8.3515625 14.38476562 C8.45071882 22.24290413 8.45071882 22.24290413 6.109375 26.17578125 C3.13464043 28.74837578 1.47823003 29.15549643 -2.375 29.1875 C-3.14585937 29.20167969 -3.91671875 29.21585938 -4.7109375 29.23046875 C-7.21834888 28.97801607 -8.83261902 28.25193467 -11 27 C-11 26.01 -11 25.02 -11 24 C-10.505 24.165 -10.01 24.33 -9.5 24.5 C-5.46790828 25.30641834 -0.73974432 25.86987216 3 24 C3 22.35 3 20.7 3 19 C2.34 19.33 1.68 19.66 1 20 C-2.0826338 20.47844415 -4.92434762 20.55149629 -8 20 C-11.64568185 16.94953151 -12.8388089 15.14848661 -13.5 10.4375 C-12.97300076 6.81438025 -12.22264703 4.88120911 -10 2 C-6.28986601 -0.47342266 -4.38939738 -0.38503486 0 0 Z " fill="#296E52" transform="translate(411,571)"/>
<path d="M0 0 C3.83625 -0.061875 3.83625 -0.061875 7.75 -0.125 C8.54889648 -0.14320801 9.34779297 -0.16141602 10.17089844 -0.18017578 C16.95346749 -0.23313791 16.95346749 -0.23313791 20 2 C22.45665197 5.68497796 22.70086491 8.71971786 22 13 C20.20636089 15.8100346 18.98119065 17.50940468 16 19 C13.28024285 19.07187519 10.59325368 19.0927862 7.875 19.0625 C5.27625 19.041875 2.6775 19.02125 0 19 C0 12.73 0 6.46 0 0 Z " fill="#FCFDFC" transform="translate(383,493)"/>
<path d="M0 0 C3.49345002 2.38189774 5.39073501 4.33610251 7.75 7.875 C7.75 9.855 7.75 11.835 7.75 13.875 C-2.15 13.875 -12.05 13.875 -22.25 13.875 C-21.18447307 6.41631151 -21.05731527 5.68231527 -16.25 0.875 C-11.08578637 -2.25547177 -5.57764487 -1.93072323 0 0 Z " fill="#F8FBF5" transform="translate(725.25,502.125)"/>
<path d="M0 0 C0 1.98 0 3.96 0 6 C-0.59167969 6.07476562 -1.18335938 6.14953125 -1.79296875 6.2265625 C-6.11892833 6.94637959 -9.12752313 7.52591293 -12 11 C-14.84407807 15.26611711 -15.16038778 17.41274127 -15.31640625 22.5390625 C-15.35830078 23.84101562 -15.40019531 25.14296875 -15.44335938 26.484375 C-15.48317299 27.86458045 -15.52288522 29.24478883 -15.5625 30.625 C-15.60569407 32.01303415 -15.64930865 33.40105528 -15.69335938 34.7890625 C-15.79972 38.19260256 -15.90174714 41.59621778 -16 45 C-17.98 45 -19.96 45 -22 45 C-22 30.48 -22 15.96 -22 1 C-20.35 1 -18.7 1 -17 1 C-16.67 3.31 -16.34 5.62 -16 8 C-15.46375 7.236875 -14.9275 6.47375 -14.375 5.6875 C-10.19084889 0.95280269 -6.25084089 -0.44648864 0 0 Z " fill="#75C03F" transform="translate(806,495)"/>
<path d="M0 0 C0.88365234 0.02255859 1.76730469 0.04511719 2.67773438 0.06835938 C4.8483891 0.12702572 7.0181669 0.21670021 9.1875 0.3125 C9.45489272 7.72309818 9.45489272 7.72309818 8.26953125 10.3359375 C4.17926171 14.69050138 1.07367377 16.34891305 -4.8125 16.625 C-8.52529089 16.53375939 -10.84757801 15.64849914 -13.8125 13.3125 C-15.25680855 10.42388291 -15.18938506 8.51602299 -14.8125 5.3125 C-10.61895882 -0.5704637 -6.64245812 -0.32196851 0 0 Z " fill="#FAFCF6" transform="translate(832.8125,519.6875)"/>
<path d="M0 0 C1.65 0 3.3 0 5 0 C6.84255516 3.93324939 8.67244719 7.87226022 10.5 11.8125 C11.02464844 12.93205078 11.54929687 14.05160156 12.08984375 15.20507812 C12.83427734 16.81479492 12.83427734 16.81479492 13.59375 18.45703125 C14.05458984 19.44678955 14.51542969 20.43654785 14.99023438 21.45629883 C16 24 16 24 16 27 C15.01 27 14.02 27 13 27 C12.01 25.02 11.02 23.04 10 21 C5.05 21 0.1 21 -5 21 C-5.99 22.98 -6.98 24.96 -8 27 C-8.99 27 -9.98 27 -11 27 C-9.00667932 20.60703339 -6.58525386 14.52953606 -3.8125 8.4375 C-3.44447266 7.61958984 -3.07644531 6.80167969 -2.69726562 5.95898438 C-1.80204987 3.97090782 -0.9015835 1.98519692 0 0 Z " fill="#1A674D" transform="translate(380,565)"/>
<path d="M0 0 C3.63 0 7.26 0 11 0 C14.20715889 6.41431779 13.4727678 11.20050626 11.3125 17.8125 C9.78289973 22.27540777 8.22618318 23.89041271 4 26 C3.84144531 25.26394531 3.68289063 24.52789063 3.51953125 23.76953125 C2.07098059 17.71122822 0.95891291 13.88671553 -4 10 C-3.1875 8.0625 -3.1875 8.0625 -2 6 C-1.01 5.67 -0.02 5.34 1 5 C1 4.34 1 3.68 1 3 C1.66 2.67 2.32 2.34 3 2 C2.01 1.34 1.02 0.68 0 0 Z " fill="#48A649" transform="translate(331,505)"/>
<path d="M0 0 C3.94956425 2.36973855 5.75141672 4.57320475 7 9 C7 9.99 7 10.98 7 12 C1.39 12 -4.22 12 -10 12 C-9.01 13.65 -8.02 15.3 -7 17 C-4.1165291 17.2288469 -1.82188833 17.24373316 1 17 C2.32 17 3.64 17 5 17 C4 20 4 20 2 21 C-2.96341236 21.61493604 -6.77342035 21.73594779 -11.125 19.125 C-13.76174026 14.7304329 -13.91219098 11.00472351 -13 6 C-9.48546379 0.25959085 -6.60740879 -0.5599499 0 0 Z " fill="#447D66" transform="translate(753,571)"/>
<path d="M0 0 C4.86707569 0.47872876 6.57558653 1.75273969 9.8125 5.375 C10.1425 7.685 10.4725 9.995 10.8125 12.375 C5.2025 12.375 -0.4075 12.375 -6.1875 12.375 C-5.1975 14.025 -4.2075 15.675 -3.1875 17.375 C-1.01664312 17.97735411 -1.01664312 17.97735411 1.3125 17.6875 C2.0859375 17.64238281 2.859375 17.59726562 3.65625 17.55078125 C4.3678125 17.49277344 5.079375 17.43476562 5.8125 17.375 C6.8025 17.375 7.7925 17.375 8.8125 17.375 C7.8125 20.375 7.8125 20.375 5.8125 21.375 C1.21373316 21.92612923 -2.16537887 21.99253151 -6.1875 19.5625 C-9.28842371 16.1708647 -9.57578903 12.90531357 -9.55078125 8.37890625 C-8.94096919 5.01510423 -6.75306176 3.43996434 -4.1875 1.375 C-3.1875 0.375 -3.1875 0.375 0 0 Z " fill="#296C4C" transform="translate(819.1875,570.625)"/>
<path d="M0 0 C2.84492497 1.29314772 4.51810592 2.31157989 6.3125 4.875 C7 7 7 7 7 12 C1.39 12 -4.22 12 -10 12 C-9.34 13.65 -8.68 15.3 -8 17 C-6.39592672 17.02708567 -4.7917215 17.04643483 -3.1875 17.0625 C-1.84751953 17.07990234 -1.84751953 17.07990234 -0.48046875 17.09765625 C2.13413791 17.11009967 2.13413791 17.11009967 5 16 C4.125 19.875 4.125 19.875 3 21 C-1.95031853 21.64170796 -5.78199083 21.77057723 -10.0625 19.0625 C-12.58456465 15.07601072 -13.58916416 11.72161133 -13 7 C-9.96265264 1.27072911 -6.29761704 -0.49393075 0 0 Z " fill="#31715B" transform="translate(672,571)"/>
<path d="M0 0 C2.703125 1.4765625 2.703125 1.4765625 5 4 C5.60985259 6.94058742 5.47348484 9.76311203 5.3125 12.75 C5.28994141 13.54277344 5.26738281 14.33554687 5.24414062 15.15234375 C5.18540471 17.1023762 5.09572654 19.05143312 5 21 C4.360625 20.814375 3.72125 20.62875 3.0625 20.4375 C2.0415625 20.2209375 2.0415625 20.2209375 1 20 C0.67 20.33 0.34 20.66 0 21 C-1.9609375 21.203125 -1.9609375 21.203125 -4.375 21.25 C-5.16648437 21.27578125 -5.95796875 21.3015625 -6.7734375 21.328125 C-9 21 -9 21 -10.796875 19.70703125 C-12 18 -12 18 -11.875 14.4375 C-11 11 -11 11 -8 9 C-5.51953125 8.8046875 -5.51953125 8.8046875 -2.8125 8.875 C-1.91144531 8.89304687 -1.01039063 8.91109375 -0.08203125 8.9296875 C0.60503906 8.95289063 1.29210937 8.97609375 2 9 C1.67 7.35 1.34 5.7 1 4 C-5.08408472 3.80185739 -5.08408472 3.80185739 -11 5 C-11 4.01 -11 3.02 -11 2 C-7.34148709 -0.34144827 -4.27169964 -0.44965259 0 0 Z " fill="#2A725C" transform="translate(576,571)"/>
<path d="M0 0 C0.98613281 0.00322266 1.97226562 0.00644531 2.98828125 0.00976562 C4.02082031 0.01814453 5.05335938 0.02652344 6.1171875 0.03515625 C7.67759766 0.04192383 7.67759766 0.04192383 9.26953125 0.04882812 C11.84380712 0.06063673 14.41796896 0.0771055 16.9921875 0.09765625 C16.6621875 1.41765625 16.3321875 2.73765625 15.9921875 4.09765625 C14.81140625 4.1234375 13.630625 4.14921875 12.4140625 4.17578125 C10.85673427 4.23207022 9.29944403 4.28941739 7.7421875 4.34765625 C6.96488281 4.36183594 6.18757812 4.37601563 5.38671875 4.390625 C1.60488675 4.55224175 -0.42419332 4.66738368 -3.53515625 6.9609375 C-5.52839981 9.85299116 -5.3603638 11.64265354 -5.0078125 15.09765625 C-4.8840625 16.45890625 -4.8840625 16.45890625 -4.7578125 17.84765625 C-4.21245193 20.27197873 -4.21245193 20.27197873 -1.9453125 21.41015625 C-1.3059375 21.63703125 -0.6665625 21.86390625 -0.0078125 22.09765625 C-0.6678125 22.75765625 -1.3278125 23.41765625 -2.0078125 24.09765625 C-5.20584452 23.92933878 -6.71797705 23.33780562 -9.1953125 21.28515625 C-11.90315409 18.01707157 -12.86758492 16.02666396 -13.5078125 11.78515625 C-12.84179373 6.87326781 -10.59637083 4.38871752 -7.0078125 1.09765625 C-4.50284246 -0.15482877 -2.79927976 -0.01608781 0 0 Z " fill="#7BC241" transform="translate(824.0078125,515.90234375)"/>
<path d="M0 0 C0.99 0 1.98 0 3 0 C3.33 0.66 3.66 1.32 4 2 C4.99 1.34 5.98 0.68 7 0 C10.8973724 -0.50835292 12.50556726 -0.32962183 15.8125 1.875 C18.80931277 4.78618955 18.9846988 5.42100249 19.09765625 9.6953125 C19.09100493 11.17190652 19.07907574 12.64848404 19.0625 14.125 C19.05798828 14.87910156 19.05347656 15.63320313 19.04882812 16.41015625 C19.03703499 18.27347127 19.01909942 20.13674555 19 22 C17.68 22 16.36 22 15 22 C14.92652344 20.30230469 14.92652344 20.30230469 14.8515625 18.5703125 C14.77653486 17.08851661 14.70098703 15.606747 14.625 14.125 C14.5940625 13.37863281 14.563125 12.63226562 14.53125 11.86328125 C14.44356169 7.46526812 14.44356169 7.46526812 12 4 C8.43407381 4.16417032 8.43407381 4.16417032 5 5 C3.47893366 8.04213267 3.62570662 11.28047572 3.4375 14.625 C3.39431641 15.33140625 3.35113281 16.0378125 3.30664062 16.765625 C3.20055249 18.51018537 3.09977111 20.25506697 3 22 C2.01 22 1.02 22 0 22 C0 14.74 0 7.48 0 0 Z " fill="#528571" transform="translate(765,571)"/>
<path d="M0 0 C2.9375 2.0625 2.9375 2.0625 5 5 C5.06625411 8.8427383 4.81899419 10.99200716 2.375 14 C-1.11581787 15.46981805 -3.39148956 14.98413921 -7 14 C-9.5881216 11.74582958 -9.94242643 10.39479021 -10.4375 7 C-10 4 -10 4 -8.375 1.625 C-5.24988831 -0.51323431 -3.71837535 -0.6829669 0 0 Z " fill="#F4F7F4" transform="translate(411,574)"/>
<path d="M0 0 C0.99 0 1.98 0 3 0 C3 0.99 3 1.98 3 3 C3.66 2.484375 4.32 1.96875 5 1.4375 C9.27077737 -0.60891416 11.40654966 -0.11131863 16 1 C18.85549295 3.54609417 19.00163838 5.02175771 19.29296875 8.890625 C19.27314945 10.34404009 19.23754845 11.79731167 19.1875 13.25 C19.16719727 14.36761719 19.16719727 14.36761719 19.14648438 15.5078125 C19.11127204 17.33885416 19.05746851 19.16952169 19 21 C18.01 21 17.02 21 16 21 C15.95101562 19.94039062 15.90203125 18.88078125 15.8515625 17.7890625 C15.77653291 16.40101503 15.70098515 15.01299549 15.625 13.625 C15.5940625 12.92632813 15.563125 12.22765625 15.53125 11.5078125 C15.40500502 7.29814173 15.40500502 7.29814173 13 4 C10 3.66666667 10 3.66666667 7 4 C4.06552643 6.93447357 4.53841577 10.18259456 4.375 14.125 C4.33632813 14.87910156 4.29765625 15.63320313 4.2578125 16.41015625 C4.16348969 18.27303184 4.08065338 20.13648255 4 22 C2.68 22 1.36 22 0 22 C0 14.74 0 7.48 0 0 Z " fill="#3B7C67" transform="translate(620,571)"/>
<path d="M0 0 C2.375 1.5625 2.375 1.5625 4 4 C4.5625 7.5 4.5625 7.5 4 11 C1.58140437 13.69500656 -0.00763965 14.80636871 -3.5625 15.5 C-6.9249123 14.8102744 -8.0486167 13.81866476 -10 11 C-10.56783945 7.02512383 -10.62340519 4.93510779 -8.375 1.5625 C-5.28314769 -0.47161336 -3.63632575 -0.60605429 0 0 Z " fill="#F8F9F7" transform="translate(727,574)"/>
<path d="M0 0 C2.9375 1.5625 2.9375 1.5625 5 4 C5.067104 7.82492824 4.85825932 10.01459116 2.3125 12.9375 C-0.7058606 14.32431433 -2.70970079 14.4112874 -6 14 C-8.375 12.9375 -8.375 12.9375 -10 11 C-10.57491549 7.04745604 -10.61372366 4.92058549 -8.375 1.5625 C-5.26456309 -0.48384007 -3.66322334 -0.59807728 0 0 Z " fill="#7AC93A" transform="translate(617,474)"/>
<path d="M0 0 C0.99 0 1.98 0 3 0 C3.03738281 1.13179687 3.07476562 2.26359375 3.11328125 3.4296875 C3.17893082 4.91149205 3.24537851 6.39326139 3.3125 7.875 C3.33505859 8.62136719 3.35761719 9.36773438 3.38085938 10.13671875 C3.47811945 12.099604 3.73042294 14.05328322 4 16 C6.837578 18.35014158 6.837578 18.35014158 10.125 17.6875 C12.88086422 17.29355679 12.88086422 17.29355679 14 16 C14.23678716 13.30764224 14.42198025 10.63501844 14.5625 7.9375 C14.60568359 7.17888672 14.64886719 6.42027344 14.69335938 5.63867188 C14.79973633 3.75934562 14.90039934 1.87969756 15 0 C16.32 0 17.64 0 19 0 C19 6.93 19 13.86 19 21 C18.01 21 17.02 21 16 21 C16 20.34 16 19.68 16 19 C15.01 19.66 14.02 20.32 13 21 C10.87890625 21.37109375 10.87890625 21.37109375 8.5625 21.4375 C7.80066406 21.47746094 7.03882813 21.51742187 6.25390625 21.55859375 C4 21 4 21 1.73046875 18.9921875 C-0.54856255 15.05146972 -0.45697174 12.14137273 -0.25 7.6875 C-0.23195313 6.94693359 -0.21390625 6.20636719 -0.1953125 5.44335938 C-0.14847337 3.6283429 -0.07673789 1.81399834 0 0 Z " fill="#266E56" transform="translate(473,571)"/>
<path d="M0 0 C2.0625 0.4375 2.0625 0.4375 4 1 C4.33 2.32 4.66 3.64 5 5 C-0.74297001 9.00672327 -4.9260572 11.28609154 -12 11.25 C-13.5159375 11.25773438 -13.5159375 11.25773438 -15.0625 11.265625 C-18.0703976 10.99363426 -20.27306793 10.26321118 -23 9 C-23 8.34 -23 7.68 -23 7 C-22.34 6.67 -21.68 6.34 -21 6 C-21.66 5.01 -22.32 4.02 -23 3 C-22.34 2.67 -21.68 2.34 -21 2 C-20.39929688 2.30292969 -19.79859375 2.60585938 -19.1796875 2.91796875 C-15.32289186 4.83254293 -11.20731307 4.45054691 -7 4 C-3.17962798 2.49000834 -3.17962798 2.49000834 0 0 Z " fill="#78BE4C" transform="translate(731,530)"/>
<path d="M0 0 C2.12693559 2.74444561 3.97261482 5.53301386 5.71484375 8.53515625 C6.23095215 9.41816406 6.74706055 10.30117188 7.27880859 11.2109375 C8.09986084 12.62246094 8.09986084 12.62246094 8.9375 14.0625 C12.36290489 19.9429899 15.81141461 25.78229694 19.55859375 31.46484375 C20.11619385 32.3148999 20.67379395 33.16495605 21.24829102 34.04077148 C22.3111551 35.64758973 23.38796111 37.24529543 24.48022461 38.83227539 C28.03910795 44.2314437 28.03910795 44.2314437 27.8203125 48.53125 C27.54960937 49.3459375 27.27890625 50.160625 27 51 C26.34 51 25.68 51 25 51 C24.6282666 50.28158936 24.2565332 49.56317871 23.87353516 48.82299805 C22.44498727 46.06297309 21.01578486 43.30328809 19.58627319 40.54376221 C18.94668183 39.30868222 18.30737808 38.07345325 17.66836548 36.83807373 C14.43755726 30.5921115 11.20123436 24.35032779 7.87890625 18.15234375 C7.41983887 17.29358643 6.96077148 16.4348291 6.48779297 15.55004883 C5.64203858 13.9727153 4.79107108 12.39816217 3.93408203 10.8269043 C2.00696018 7.22705388 0.49269448 4.11924896 0 0 Z " fill="#F5F8F1" transform="translate(195,566)"/>
<path d="M0 0 C2.9375 1.5 2.9375 1.5 5 3 C4.67 3.99 4.34 4.98 4 6 C3.46375 5.67 2.9275 5.34 2.375 5 C-0.62934544 3.73501245 -2.76767442 3.65613558 -6 4 C-8.03882095 4.87129307 -8.03882095 4.87129307 -9 7 C-9.36095911 9.80173027 -9.22716238 12.13775402 -9 15 C-7.01424877 17.44171198 -7.01424877 17.44171198 -3.125 17.125 C-1.74985583 17.0883992 -0.3748385 17.04669263 1 17 C2.32 17 3.64 17 5 17 C2.66620444 20.83627179 2.66620444 20.83627179 -0.3046875 21.56640625 C-4.73567483 21.55967223 -7.27619592 21.47268838 -11.0625 19 C-13.44889613 15.30493503 -14.45699317 12.40610397 -14 8 C-10.57175761 1.38838969 -7.42105635 -0.63974624 0 0 Z " fill="#2F6752" transform="translate(802,571)"/>
<path d="M0 0 C0.99 0 1.98 0 3 0 C3 6.93 3 13.86 3 21 C1.68 20.67 0.36 20.34 -1 20 C-1.66 20.33 -2.32 20.66 -3 21 C-5.05859375 21.23828125 -5.05859375 21.23828125 -7.4375 21.3125 C-8.61119141 21.36857422 -8.61119141 21.36857422 -9.80859375 21.42578125 C-12 21 -12 21 -13.7734375 19.49609375 C-15.51448924 15.95299801 -15.32019563 12.60157581 -15.1875 8.75 C-15.17396484 8.00492188 -15.16042969 7.25984375 -15.14648438 6.4921875 C-15.11127204 4.66114584 -15.05746851 2.83047831 -15 1 C-14.34 1 -13.68 1 -13 1 C-12.96261719 1.89203125 -12.92523437 2.7840625 -12.88671875 3.703125 C-12.82097656 4.87359375 -12.75523437 6.0440625 -12.6875 7.25 C-12.62949219 8.41015625 -12.57148437 9.5703125 -12.51171875 10.765625 C-11.97952751 14.12939867 -11.3985658 15.62466486 -9 18 C-5.8591115 18.39261106 -4.02076303 18.00692101 -1 17 C-0.67 11.39 -0.34 5.78 0 0 Z " fill="#12644B" transform="translate(540,571)"/>
<path d="M0 0 C3.91280648 0.26085377 5.73910671 0.78654185 8.75 3.25 C8.75 4.24 8.75 5.23 8.75 6.25 C4.875 5.375 4.875 5.375 3.75 4.25 C-0.35829899 3.88744065 -0.35829899 3.88744065 -4.125 5.3125 C-5.91830867 8.40097604 -5.67841969 10.76143969 -5.25 14.25 C-3.79002013 16.87716577 -3.79002013 16.87716577 -1.25 18.25 C1.77685532 18.07888749 1.77685532 18.07888749 4.75 17.25 C6.07 17.25 7.39 17.25 8.75 17.25 C7.18667992 19.81466236 6.41288906 21.07697472 3.4453125 21.8515625 C-1.29395786 21.89477773 -3.53285906 21.80936993 -7.375 18.8125 C-9.58567632 15.48069497 -9.96002767 12.31399702 -9.75390625 8.37109375 C-8.94744628 4.97645992 -6.92613968 3.33869438 -4.25 1.25 C-3.25 0.25 -3.25 0.25 0 0 Z " fill="#2D7259" transform="translate(459.25,570.75)"/>
<path d="M0 0 C1.77503906 0.03480469 1.77503906 0.03480469 3.5859375 0.0703125 C5.36871094 0.09738281 5.36871094 0.09738281 7.1875 0.125 C8.10273438 0.14820313 9.01796875 0.17140625 9.9609375 0.1953125 C10.21875 5.8984375 10.21875 5.8984375 7.8984375 8.5703125 C4.28052767 10.57170942 2.04075582 10.64862565 -2.0390625 10.1953125 C-3.0290625 9.5353125 -4.0190625 8.8753125 -5.0390625 8.1953125 C-5.3515625 5.1953125 -5.3515625 5.1953125 -5.0390625 2.1953125 C-3.0390625 0.1953125 -3.0390625 0.1953125 0 0 Z " fill="#F6F9F7" transform="translate(443.0390625,521.8046875)"/>
<path d="M0 0 C0.99 0 1.98 0 3 0 C3 1.65 3 3.3 3 5 C4.98 5 6.96 5 9 5 C9 5.99 9 6.98 9 8 C7.02 8 5.04 8 3 8 C3.33 12.62 3.66 17.24 4 22 C7.63619656 23.08084521 7.63619656 23.08084521 10 23 C10 23.99 10 24.98 10 26 C7.25 26.75 7.25 26.75 4 27 C1.8125 25.5 1.8125 25.5 0 23 C-0.2911521 20.26317029 -0.38322418 17.96059961 -0.25 15.25 C-0.23195313 14.55261719 -0.21390625 13.85523438 -0.1953125 13.13671875 C-0.14838554 11.42388461 -0.07664605 9.71176176 0 8 C-1.32 8 -2.64 8 -4 8 C-3.67 7.01 -3.34 6.02 -3 5 C-2.01 5 -1.02 5 0 5 C0 3.35 0 1.7 0 0 Z " fill="#337661" transform="translate(510,566)"/>
<path d="M0 0 C1.32 0 2.64 0 4 0 C4 1.65 4 3.3 4 5 C5.98 5 7.96 5 10 5 C10 5.99 10 6.98 10 8 C8.02 8 6.04 8 4 8 C4.33 12.95 4.66 17.9 5 23 C6.65 23 8.3 23 10 23 C10 23.99 10 24.98 10 26 C6.625 26.125 6.625 26.125 3 26 C1 24 1 24 0.8046875 20.3046875 C0.817991 18.82799892 0.84185165 17.35137642 0.875 15.875 C0.88402344 15.12089844 0.89304687 14.36679687 0.90234375 13.58984375 C0.9259313 11.72642746 0.96180281 9.86317407 1 8 C-0.32 8 -1.64 8 -3 8 C-3 7.01 -3 6.02 -3 5 C-2.01 5 -1.02 5 0 5 C0 3.35 0 1.7 0 0 Z " fill="#115F3F" transform="translate(646,566)"/>
<path d="M0 0 C1.32 0 2.64 0 4 0 C4 9.57 4 19.14 4 29 C2.68 29.33 1.36 29.66 0 30 C0 20.1 0 10.2 0 0 Z " fill="#407B66" transform="translate(684,563)"/>
<path d="M0 0 C1.32 0 2.64 0 4 0 C4 9.57 4 19.14 4 29 C2.68 28.67 1.36 28.34 0 28 C0 18.76 0 9.52 0 0 Z " fill="#43826E" transform="translate(609,564)"/>
<path d="M0 0 C3.125 0.375 3.125 0.375 5.5625 2.0625 C7.125 4.375 7.125 4.375 7.0625 7 C6.125 9.375 6.125 9.375 3.125 11.375 C0.33741468 11.1659311 -1.38203708 10.71497443 -3.6875 9.125 C-5.30482809 6.74156913 -5.23669769 5.19624201 -4.875 2.375 C-2.875 0.375 -2.875 0.375 0 0 Z " fill="#F0F5F1" transform="translate(273.875,473.625)"/>
<path d="M0 0 C0.99 0 1.98 0 3 0 C3 7.59 3 15.18 3 23 C2.01 23 1.02 23 0 23 C-0.06058594 22.35933594 -0.12117188 21.71867188 -0.18359375 21.05859375 C-0.35721108 19.26632868 -0.53719707 17.47467218 -0.72265625 15.68359375 C-0.88911932 14.07288772 -1.04596939 12.46108224 -1.18359375 10.84765625 C-1.36448519 8.79506644 -1.36448519 8.79506644 -2 6 C-5.44450737 3.70366176 -7.93812283 3.45983515 -12 3 C-11.67 2.34 -11.34 1.68 -11 1 C-4.9453125 0.8046875 -4.9453125 0.8046875 -3 1 C-2.34 1.66 -1.68 2.32 -1 3 C-0.67 2.01 -0.34 1.02 0 0 Z " fill="#1D664F" transform="translate(416,571)"/>
<path d="M0 0 C2.875 1.5625 2.875 1.5625 5 4 C5.8125 7.75 5.8125 7.75 6 11 C5.34 11 4.68 11 4 11 C3.71125 10.21625 3.4225 9.4325 3.125 8.625 C2.15087746 5.90328368 2.15087746 5.90328368 0 4 C-3.5 3.66666667 -3.5 3.66666667 -7 4 C-9.37158027 6.0285831 -9.37158027 6.0285831 -10 10 C-5.71 10 -1.42 10 3 10 C3 10.33 3 10.66 3 11 C2.01257813 11.04898438 1.02515625 11.09796875 0.0078125 11.1484375 C-1.27351562 11.22320313 -2.55484375 11.29796875 -3.875 11.375 C-5.78925781 11.47941406 -5.78925781 11.47941406 -7.7421875 11.5859375 C-11.08061699 11.67241106 -11.08061699 11.67241106 -13 14 C-13.49029622 6.76813075 -13.49029622 6.76813075 -11.125 3.0625 C-7.52072687 -0.4357651 -4.96784874 -0.42100413 0 0 Z " fill="#2E6A52" transform="translate(753,571)"/>
<path d="M0 0 C0.66 0 1.32 0 2 0 C2.67354499 1.43429001 3.33859701 2.87257057 4 4.3125 C4.556875 5.51326172 4.556875 5.51326172 5.125 6.73828125 C6 9 6 9 6 12 C5.01 12 4.02 12 3 12 C2.01 10.02 1.02 8.04 0 6 C-4.95 6 -9.9 6 -15 6 C-15.99 7.98 -16.98 9.96 -18 12 C-18.99 12 -19.98 12 -21 12 C-19.75583892 7.02335569 -18.36523262 4.73426659 -14 2 C-10.66796875 1.828125 -10.66796875 1.828125 -7.1875 2.25 C-6.02605469 2.37890625 -4.86460937 2.5078125 -3.66796875 2.640625 C-2.78753906 2.75921875 -1.90710938 2.8778125 -1 3 C-0.67 2.01 -0.34 1.02 0 0 Z " fill="#075946" transform="translate(390,580)"/>
<path d="M0 0 C0.99 0 1.98 0 3 0 C3.33 0.66 3.66 1.32 4 2 C4.99 1.34 5.98 0.68 7 0 C7.99 0 8.98 0 10 0 C10 0.99 10 1.98 10 3 C7.5625 4.625 7.5625 4.625 5 6 C3.00383446 7.99616554 3.59016573 11.81701963 3.4375 14.5625 C3.39431641 15.27341797 3.35113281 15.98433594 3.30664062 16.71679688 C3.20028223 18.47761912 3.09961154 20.2387832 3 22 C2.01 22 1.02 22 0 22 C0 14.74 0 7.48 0 0 Z " fill="#1B684A" transform="translate(551,571)"/>
<path d="M0 0 C0.99 0 1.98 0 3 0 C3 9.9 3 19.8 3 30 C2.01 30 1.02 30 0 30 C0 20.1 0 10.2 0 0 Z " fill="#21694C" transform="translate(695,563)"/>
<path d="M0 0 C0 1.98 0 3.96 0 6 C-0.90492188 6.16435547 -0.90492188 6.16435547 -1.828125 6.33203125 C-7.93684987 7.50797128 -7.93684987 7.50797128 -13 11 C-13.66 10.34 -14.32 9.68 -15 9 C-14.80510844 6.36633029 -14.32862804 5.29803975 -12.36328125 3.515625 C-8.08614674 0.87602199 -5.19797535 -0.64974692 0 0 Z " fill="#80C54A" transform="translate(806,495)"/>
<path d="M0 0 C0.99 0 1.98 0 3 0 C3.33 0.66 3.66 1.32 4 2 C4.99 1.34 5.98 0.68 7 0 C7.99 0 8.98 0 10 0 C10 0.99 10 1.98 10 3 C9.030625 3.433125 8.06125 3.86625 7.0625 4.3125 C5.28679353 5.22354752 5.28679353 5.22354752 4 7 C3.1411944 11.6613159 3.01265413 16.26735486 3 21 C2.01 21 1.02 21 0 21 C0 14.07 0 7.14 0 0 Z " fill="#1D674A" transform="translate(426,571)"/>
<path d="M0 0 C0.99 0 1.98 0 3 0 C3 9.57 3 19.14 3 29 C2.01 29 1.02 29 0 29 C0 19.43 0 9.86 0 0 Z " fill="#18654B" transform="translate(588,563)"/>
<path d="M0 0 C0.99 0 1.98 0 3 0 C3 9.57 3 19.14 3 29 C2.01 29 1.02 29 0 29 C0 19.43 0 9.86 0 0 Z " fill="#156748" transform="translate(499,563)"/>
<path d="M0 0 C3.32532111 2.69192661 4.52454943 6.06546515 6 10 C6 10.99 6 11.98 6 13 C2.37 13 -1.26 13 -5 13 C-2.05357143 3.89285714 -2.05357143 3.89285714 0 0 Z " fill="#F2F5F3" transform="translate(382,569)"/>
<path d="M0 0 C1.93166016 0.01740234 1.93166016 0.01740234 3.90234375 0.03515625 C5.19269531 0.04417969 6.48304688 0.05320312 7.8125 0.0625 C8.81152344 0.07410156 9.81054688 0.08570313 10.83984375 0.09765625 C7.62802226 2.00373723 5.30101772 2.32031872 1.58984375 2.22265625 C0.6978125 2.20460938 -0.19421875 2.1865625 -1.11328125 2.16796875 C-2.12648438 2.13316406 -2.12648438 2.13316406 -3.16015625 2.09765625 C-2.31618319 4.76016459 -2.31618319 4.76016459 -0.16015625 7.09765625 C2.87666765 7.57834532 5.78697784 7.34653119 8.83984375 7.09765625 C9.82984375 7.09765625 10.81984375 7.09765625 11.83984375 7.09765625 C10.83984375 10.09765625 10.83984375 10.09765625 8.83984375 11.09765625 C4.11261633 11.66418056 0.83284023 11.74614374 -3.22265625 9.09765625 C-3.86203125 8.43765625 -4.50140625 7.77765625 -5.16015625 7.09765625 C-4.12203006 0.12738041 -4.12203006 0.12738041 0 0 Z " fill="#1A5F46" transform="translate(816.16015625,580.90234375)"/>
<path d="M0 0 C5.61 0 11.22 0 17 0 C16.34 0.66 15.68 1.32 15 2 C15 2.99 15 3.98 15 5 C10.97394757 6.34201748 7.21002223 6.58799193 3 6 C0.9375 4.125 0.9375 4.125 0 2 C0 1.34 0 0.68 0 0 Z " fill="#EFF3ED" transform="translate(813,583)"/>
<path d="M0 0 C1.22589844 0.01353516 1.22589844 0.01353516 2.4765625 0.02734375 C3.41628906 0.04474609 3.41628906 0.04474609 4.375 0.0625 C4.375 0.3925 4.375 0.7225 4.375 1.0625 C2.065 1.7225 -0.245 2.3825 -2.625 3.0625 C-3.21570014 5.00853274 -3.21570014 5.00853274 -3.625 7.0625 C-3.295 7.3925 -2.965 7.7225 -2.625 8.0625 C1.39136782 7.83515843 3.69792551 7.63540919 6.8125 5 C7.328125 4.360625 7.84375 3.72125 8.375 3.0625 C8.375 5.3725 8.375 7.6825 8.375 10.0625 C5.47941295 10.88038791 2.82035913 11.25142672 -0.1875 11.3125 C-0.95191406 11.33828125 -1.71632813 11.3640625 -2.50390625 11.390625 C-4.625 11.0625 -4.625 11.0625 -6.4140625 9.7734375 C-7.625 8.0625 -7.625 8.0625 -7.4375 4.4375 C-7.169375 3.32375 -6.90125 2.21 -6.625 1.0625 C-4.21954362 -0.14022819 -2.67503047 -0.03821472 0 0 Z " fill="#176C51" transform="translate(571.625,580.9375)"/>
<path d="M0 0 C5.28 0 10.56 0 16 0 C16 1.32 16 2.64 16 4 C12.28061029 6.47959314 8.3223853 6.74401714 4 6 C1.5 4.125 1.5 4.125 0 2 C0 1.34 0 0.68 0 0 Z " fill="#F9FAF7" transform="translate(662,583)"/>
<path d="M0 0 C5.28 0 10.56 0 16 0 C15.67 1.65 15.34 3.3 15 5 C10.96961634 6.34346122 7.20161608 6.26676927 3 6 C1 4.6875 1 4.6875 0 3 C0 2.01 0 1.02 0 0 Z " fill="#F3F5F1" transform="translate(743,583)"/>
<path d="M0 0 C7.41265823 0.48607595 7.41265823 0.48607595 9.75 2.53125 C11.53419209 6.05502937 11.32011609 9.40073302 11.1875 13.25 C11.17396484 13.99507812 11.16042969 14.74015625 11.14648438 15.5078125 C11.11127204 17.33885416 11.05746851 19.16952169 11 21 C10.01 21 9.02 21 8 21 C7.95101562 19.94039062 7.90203125 18.88078125 7.8515625 17.7890625 C7.77653291 16.40101503 7.70098515 15.01299549 7.625 13.625 C7.5940625 12.92632813 7.563125 12.22765625 7.53125 11.5078125 C7.40500502 7.29814173 7.40500502 7.29814173 5 4 C4.319375 3.67 3.63875 3.34 2.9375 3 C1 2 1 2 0 0 Z " fill="#1B6D50" transform="translate(628,571)"/>
<path d="M0 0 C0.99 0 1.98 0 3 0 C3.33 5.28 3.66 10.56 4 16 C6.31 16.99 8.62 17.98 11 19 C11 19.66 11 20.32 11 21 C7.75 21.3125 7.75 21.3125 4 21 C1.67934483 18.90814182 0.20443676 17.23880448 -0.31542969 14.08862305 C-0.39318844 11.94091627 -0.349754 9.83412936 -0.25 7.6875 C-0.23195313 6.94693359 -0.21390625 6.20636719 -0.1953125 5.44335938 C-0.14847337 3.6283429 -0.07673789 1.81399834 0 0 Z " fill="#1C6E50" transform="translate(473,571)"/>
<path d="M0 0 C0.66 0.33 1.32 0.66 2 1 C2 3.31 2 5.62 2 8 C2.66 8 3.32 8 4 8 C2.63016497 11.16115776 2.0109362 11.9927092 -1 14 C-3.12109375 14.265625 -3.12109375 14.265625 -5.4375 14.25 C-6.19933594 14.25515625 -6.96117187 14.2603125 -7.74609375 14.265625 C-10.21443018 13.9747292 -11.857686 13.22975656 -14 12 C-14 11.01 -14 10.02 -14 9 C-13.505 9.165 -13.01 9.33 -12.5 9.5 C-8.46790828 10.30641834 -3.73974432 10.86987216 0 9 C0.25030977 6.58380177 0.25030977 6.58380177 0 4 C-0.99 3.34 -1.98 2.68 -3 2 C-2.01 1.34 -1.02 0.68 0 0 Z " fill="#317565" transform="translate(414,586)"/>
<path d="M0 0 C5.66987582 1.34997043 8.25662601 3.7218583 12 8 C12 8.66 12 9.32 12 10 C9 9 9 9 7 7 C6.67 7.99 6.34 8.98 6 10 C5.50371094 9.72285156 5.00742187 9.44570313 4.49609375 9.16015625 C-0.09318168 6.71312324 -3.81559721 5.43203357 -9 5 C-9 4.67 -9 4.34 -9 4 C-4.545 3.505 -4.545 3.505 0 3 C0 2.01 0 1.02 0 0 Z " fill="#78C344" transform="translate(724,496)"/>
<path d="M0 0 C0.99 0 1.98 0 3 0 C3 7.26 3 14.52 3 22 C2.01 22 1.02 22 0 22 C0 14.74 0 7.48 0 0 Z " fill="#297153" transform="translate(705,571)"/>
<path d="M0 0 C3.5625 0.3125 3.5625 0.3125 5.5 1.625 C6.5625 3.3125 6.5625 3.3125 6.5625 6.3125 C2.2725 6.3125 -2.0175 6.3125 -6.4375 6.3125 C-4.97238372 0.45203488 -4.97238372 0.45203488 0 0 Z " fill="#F4F5F3" transform="translate(749.4375,573.6875)"/>
<path d="M0 0 C3.1875 0.3125 3.1875 0.3125 5.5625 2.1875 C7.1875 4.3125 7.1875 4.3125 7.1875 6.3125 C2.5675 6.3125 -2.0525 6.3125 -6.8125 6.3125 C-3.24107143 0.36011905 -3.24107143 0.36011905 0 0 Z " fill="#F5F7F5" transform="translate(668.8125,573.6875)"/>
<path d="M0 0 C0.66 0 1.32 0 2 0 C2.433125 1.11375 2.86625 2.2275 3.3125 3.375 C4.69911119 7.17512334 4.69911119 7.17512334 8 9 C10.97065509 8.65772428 10.97065509 8.65772428 14 8 C15.32 8 16.64 8 18 8 C16.43667992 10.56466236 15.66288906 11.82697472 12.6953125 12.6015625 C6.02533257 12.66238299 6.02533257 12.66238299 3.234375 10.859375 C0.80596633 8.20766438 0.01636334 6.17672408 -0.3125 2.625 C-0.209375 1.75875 -0.10625 0.8925 0 0 Z " fill="#186750" transform="translate(450,580)"/>
<path d="M0 0 C1.23556641 0.01740234 1.23556641 0.01740234 2.49609375 0.03515625 C3.32238281 0.04417969 4.14867187 0.05320312 5 0.0625 C5.63808594 0.07410156 6.27617188 0.08570313 6.93359375 0.09765625 C6.62109375 2.47265625 6.62109375 2.47265625 5.93359375 5.09765625 C2.70985698 7.2468141 1.66655701 7.48052428 -2.06640625 7.09765625 C-2.72640625 6.43765625 -3.38640625 5.77765625 -4.06640625 5.09765625 C-3.31779097 0.15679541 -3.31779097 0.15679541 0 0 Z " fill="#EEF2F0" transform="translate(571.06640625,582.90234375)"/>
<path d="M0 0 C0.66 0 1.32 0 2 0 C2 0.99 2 1.98 2 3 C2.66 3 3.32 3 4 3 C3.67 8.94 3.34 14.88 3 21 C2.01 21 1.02 21 0 21 C0 14.07 0 7.14 0 0 Z " fill="#216648" transform="translate(765,572)"/>
<path d="M0 0 C0.66 0 1.32 0 2 0 C2 6.93 2 13.86 2 21 C1.01 21 0.02 21 -1 21 C-1.02888146 17.68751813 -1.04675799 14.37506833 -1.0625 11.0625 C-1.07087891 10.11697266 -1.07925781 9.17144531 -1.08789062 8.19726562 C-1.09111328 7.29814453 -1.09433594 6.39902344 -1.09765625 5.47265625 C-1.10289307 4.64000244 -1.10812988 3.80734863 -1.11352539 2.94946289 C-1 1 -1 1 0 0 Z " fill="#1D7153" transform="translate(442,571)"/>
<path d="M0 0 C3.125 0.375 3.125 0.375 5.5 2.25 C7.125 4.375 7.125 4.375 7.125 6.375 C2.835 6.375 -1.455 6.375 -5.875 6.375 C-4.4255618 0.57724719 -4.4255618 0.57724719 0 0 Z " fill="#F7F9F6" transform="translate(819.875,573.625)"/>
<path d="M0 0 C6.625 -0.25 6.625 -0.25 10 2 C10.33 1.34 10.66 0.68 11 0 C12.32 0 13.64 0 15 0 C15 6.93 15 13.86 15 21 C14.67 21 14.34 21 14 21 C14 14.4 14 7.8 14 1 C13.34 1 12.68 1 12 1 C12 2.65 12 4.3 12 6 C11.01 6.495 11.01 6.495 10 7 C9.649375 6.525625 9.29875 6.05125 8.9375 5.5625 C6.15836457 3.32126175 3.4855283 3.32882342 0 3 C0 2.01 0 1.02 0 0 Z " fill="#558473" transform="translate(720,571)"/>
<path d="M0 0 C0.66 0 1.32 0 2 0 C2.33 4.62 2.66 9.24 3 14 C6.63619656 15.08084521 6.63619656 15.08084521 9 15 C9 15.99 9 16.98 9 18 C6.1875 18.625 6.1875 18.625 3 19 C2.01 18.34 1.02 17.68 0 17 C-0.2208564 14.04935852 -0.28060989 11.31631769 -0.1875 8.375 C-0.17396484 7.57320312 -0.16042969 6.77140625 -0.14648438 5.9453125 C-0.11109051 3.96325622 -0.05728234 1.98154449 0 0 Z " fill="#1C6B52" transform="translate(511,574)"/>
<path d="M0 0 C0.66 0 1.32 0 2 0 C2 6.93 2 13.86 2 21 C1.34 21 0.68 21 0 21 C0 19.35 0 17.7 0 16 C-0.66 16 -1.32 16 -2 16 C-1.85890014 13.89551062 -1.71195825 11.7914123 -1.5625 9.6875 C-1.48128906 8.51574219 -1.40007813 7.34398437 -1.31640625 6.13671875 C-1 3 -1 3 0 0 Z " fill="#0B5C3B" transform="translate(732,572)"/>
<path d="M0 0 C3.23387892 2.95267206 5.22245249 5.87922748 7.25 9.75 C7.77078125 10.73484375 8.2915625 11.7196875 8.828125 12.734375 C9.21484375 13.48203125 9.6015625 14.2296875 10 15 C5.545 14.01 5.545 14.01 1 13 C1.03255208 10.78645833 1.06510417 8.57291667 1.09765625 6.359375 C1.00385306 4.09308998 0.63241063 2.1711105 0 0 Z " fill="#217A56" transform="translate(222,622)"/>
<path d="M0 0 C0.495 0.495 0.99 0.99 1.5 1.5 C5.03282347 3.61969408 7.98849044 3.21154445 12 3 C13.32 3 14.64 3 16 3 C14.80859375 4.96875 14.80859375 4.96875 13 7 C9.62930833 7.76529894 6.39842974 7.57845613 3 7 C0.375 5 0.375 5 -1 3 C-0.67 2.01 -0.34 1.02 0 0 Z " fill="#2C6E58" transform="translate(791,585)"/>
<path d="M0 0 C0.66 0 1.32 0 2 0 C3.32861328 1.62060547 3.32861328 1.62060547 4.8203125 3.8671875 C5.35527344 4.67027344 5.89023438 5.47335937 6.44140625 6.30078125 C6.99699219 7.15027344 7.55257812 7.99976563 8.125 8.875 C8.68832031 9.71675781 9.25164062 10.55851563 9.83203125 11.42578125 C14 17.73324001 14 17.73324001 14 20 C14.99 19.67 15.98 19.34 17 19 C17 20.98 17 22.96 17 25 C12.20748702 20.69651896 9.05459269 15.70771768 5.6875 10.25 C5.13771484 9.37472656 4.58792969 8.49945312 4.02148438 7.59765625 C0 1.15328998 0 1.15328998 0 0 Z " fill="#58AA56" transform="translate(219,605)"/>
<path d="M0 0 C1.32 0 2.64 0 4 0 C4 1.65 4 3.3 4 5 C5.98 5 7.96 5 10 5 C10 5.99 10 6.98 10 8 C8.02 8 6.04 8 4 8 C4 12.62 4 17.24 4 22 C3.67 22 3.34 22 3 22 C3 15.07 3 8.14 3 1 C2.34 1 1.68 1 1 1 C1 2.65 1 4.3 1 6 C-0.32 5.67 -1.64 5.34 -3 5 C-2.01 5 -1.02 5 0 5 C0 3.35 0 1.7 0 0 Z " fill="#558A76" transform="translate(646,566)"/>
<path d="M0 0 C1.2684375 0.2475 1.2684375 0.2475 2.5625 0.5 C-1.24161834 4.41939465 -5.25326108 7.99102731 -9.4375 11.5 C-9.7675 10.51 -10.0975 9.52 -10.4375 8.5 C-7.83395177 4.14966222 -5.10443648 0.74246349 0 0 Z " fill="#175D4A" transform="translate(295.4375,540.5)"/>
<path d="M0 0 C0.99 0.33 1.98 0.66 3 1 C2.34 3.31 1.68 5.62 1 8 C6.94 7.505 6.94 7.505 13 7 C13 7.66 13 8.32 13 9 C11.53626953 8.96519531 11.53626953 8.96519531 10.04296875 8.9296875 C8.77066406 8.91164063 7.49835938 8.89359375 6.1875 8.875 C4.92292969 8.85179687 3.65835937 8.82859375 2.35546875 8.8046875 C-1.1338024 8.72418082 -1.1338024 8.72418082 -4 11 C-2.7874262 7.27566618 -1.49140021 3.62197194 0 0 Z " fill="#3D8069" transform="translate(376,574)"/>
<path d="M0 0 C0.33 0 0.66 0 1 0 C1 10.23 1 20.46 1 31 C-0.65 31 -2.3 31 -4 31 C-4 29.35 -4 27.7 -4 26 C-3.34 26.33 -2.68 26.66 -2 27 C-2 27.66 -2 28.32 -2 29 C-1.34 29 -0.68 29 0 29 C0 19.43 0 9.86 0 0 Z " fill="#6DBF2E" transform="translate(847,509)"/>
<path d="M0 0 C0.99 0.33 1.98 0.66 3 1 C3 2.65 3 4.3 3 6 C-2.61 6 -8.22 6 -14 6 C-10.57905758 3.71937172 -9.31812778 3.78074993 -5.3125 3.875 C-3.82169922 3.90207031 -3.82169922 3.90207031 -2.30078125 3.9296875 C-1.54152344 3.95289063 -0.78226563 3.97609375 0 4 C0 2.68 0 1.36 0 0 Z " fill="#1E604B" transform="translate(676,577)"/>
<path d="M0 0 C0.33 0.66 0.66 1.32 1 2 C1.99 1.67 2.98 1.34 4 1 C8.66666667 3.33333333 8.66666667 3.33333333 10 6 C7.69 6.66 5.38 7.32 3 8 C0.37613513 4.93882432 0 4.26826873 0 0 Z " fill="#75BB43" transform="translate(753,531)"/>
<path d="M0 0 C5.75 0.75 5.75 0.75 8 3 C6.68 3 5.36 3 4 3 C4 3.66 4 4.32 4 5 C1.4385343 7.29648649 0.52032428 8 -3 8 C-2.690625 7.236875 -2.38125 6.47375 -2.0625 5.6875 C-1.32106407 3.81210323 -0.63771783 1.91315348 0 0 Z " fill="#299A44" transform="translate(328,505)"/>
<path d="M0 0 C5.28 0 10.56 0 16 0 C16 1.32 16 2.64 16 4 C14.35 4.66 12.7 5.32 11 6 C10.67 5.34 10.34 4.68 10 4 C10.33 3.01 10.66 2.02 11 1 C7.37 1.33 3.74 1.66 0 2 C0 1.34 0 0.68 0 0 Z " fill="#E8EEE9" transform="translate(662,583)"/>
<path d="M0 0 C2 2 2 2 2.125 4.625 C2.08375 5.40875 2.0425 6.1925 2 7 C-0.31 7 -2.62 7 -5 7 C-5 6.67 -5 6.34 -5 6 C-8.3 5.67 -11.6 5.34 -15 5 C-14.67 4.01 -14.34 3.02 -14 2 C-14 2.66 -14 3.32 -14 4 C-9.38 4 -4.76 4 0 4 C0 2.68 0 1.36 0 0 Z " fill="#63907D" transform="translate(828,576)"/>
<path d="M0 0 C0.680625 0.639375 1.36125 1.27875 2.0625 1.9375 C5.46408839 4.3258493 7.90433701 4.67877153 12 5 C11.67 5.66 11.34 6.32 11 7 C9.56344146 7.08131463 8.1255517 7.13933559 6.6875 7.1875 C5.48673828 7.23970703 5.48673828 7.23970703 4.26171875 7.29296875 C2 7 2 7 0.1875 5.625 C-1 4 -1 4 -0.6875 1.8125 C-0.460625 1.214375 -0.23375 0.61625 0 0 Z " fill="#1C664F" transform="translate(401,584)"/>
<path d="M0 0 C0.99 0.33 1.98 0.66 3 1 C3 5.95 3 10.9 3 16 C2.34 16 1.68 16 1 16 C0.67 10.72 0.34 5.44 0 0 Z " fill="#0D5D3D" transform="translate(780,576)"/>
<path d="M0 0 C0.33 0.99 0.66 1.98 1 3 C0.38125 3.556875 -0.2375 4.11375 -0.875 4.6875 C-3.06106379 7.06645178 -3.98785699 8.96357096 -5 12 C-5.33 12 -5.66 12 -6 12 C-6.32644414 7.83783725 -6.40650982 5.63686538 -4.125 2.0625 C-2 0 -2 0 0 0 Z " fill="#256948" transform="translate(720,572)"/>
<path d="M0 0 C0.99 0 1.98 0 3 0 C3 3.3 3 6.6 3 10 C1.68 10 0.36 10 -1 10 C-0.67 6.7 -0.34 3.4 0 0 Z " fill="#1B684C" transform="translate(511,522)"/>
<path d="M0 0 C0.33 0 0.66 0 1 0 C1 6.27 1 12.54 1 19 C-0.65 19.66 -2.3 20.32 -4 21 C-4 20.01 -4 19.02 -4 18 C-3.01 17.34 -2.02 16.68 -1 16 C-0.61605333 13.22737745 -0.39657752 10.65676472 -0.3125 7.875 C-0.27833984 7.12089844 -0.24417969 6.36679687 -0.20898438 5.58984375 C-0.12645722 3.72708799 -0.06155289 1.86356674 0 0 Z " fill="#448371" transform="translate(488,571)"/>
<path d="M0 0 C3.3 0.99 6.6 1.98 10 3 C10 3.66 10 4.32 10 5 C8.741875 5.04125 7.48375 5.0825 6.1875 5.125 C5.47980469 5.14820313 4.77210938 5.17140625 4.04296875 5.1953125 C2 5 2 5 -1 3 C-0.67 2.01 -0.34 1.02 0 0 Z " fill="#236C59" transform="translate(716,595)"/>
<path d="M0 0 C5 7.5 5 7.5 5 12 C4.01 12 3.02 12 2 12 C-1.57142857 4.71428571 -1.57142857 4.71428571 0 0 Z " fill="#1D6A51" transform="translate(391,580)"/>
<path d="M0 0 C5.28 0.33 10.56 0.66 16 1 C16 1.33 16 1.66 16 2 C11.38 2.33 6.76 2.66 2 3 C1.67 4.32 1.34 5.64 1 7 C0.67 7 0.34 7 0 7 C0 4.69 0 2.38 0 0 Z " fill="#3F7A64" transform="translate(660,579)"/>
<path d="M0 0 C4.13621084 3.3810038 7.81316569 6.66590534 11 11 C10.01 11 9.02 11 8 11 C7.67 10.01 7.34 9.02 7 8 C5.6846659 7.29848848 4.34882408 6.63474075 3 6 C1.25 4.5625 1.25 4.5625 0 3 C0 2.01 0 1.02 0 0 Z " fill="#92CD45" transform="translate(211,544)"/>
<path d="M0 0 C0.99 0.33 1.98 0.66 3 1 C2 4 2 4 0 5 C-2.6723621 5.13415472 -5.32250488 5.04318541 -8 5 C-8 4.34 -8 3.68 -8 3 C-6.865625 2.690625 -5.73125 2.38125 -4.5625 2.0625 C-1.21224901 1.37075469 -1.21224901 1.37075469 0 0 Z " fill="#206750" transform="translate(755,587)"/>
<path d="M0 0 C2.44413389 3.08269139 4.33109524 6.28471111 6.1875 9.75 C6.71730469 10.73484375 7.24710938 11.7196875 7.79296875 12.734375 C8.19128906 13.48203125 8.58960938 14.2296875 9 15 C8.34 15.66 7.68 16.32 7 17 C5.82592979 14.73272667 4.66060261 12.46165376 3.5 10.1875 C3.16613281 9.54490234 2.83226562 8.90230469 2.48828125 8.24023438 C0.99760916 5.30452301 0 3.33873483 0 0 Z " fill="#D1E1C1" transform="translate(195,566)"/>
<path d="M0 0 C0.66 0 1.32 0 2 0 C3.36219168 3.67791752 2.53943019 5.49352013 1 9 C0.63128912 10.65919896 0.28718326 12.3247643 0 14 C-0.66 14 -1.32 14 -2 14 C-1.85795259 12.41632253 -1.71119847 10.83306682 -1.5625 9.25 C-1.48128906 8.36828125 -1.40007812 7.4865625 -1.31640625 6.578125 C-1.03761535 4.30649548 -0.61209423 2.20148177 0 0 Z " fill="#79BA58" transform="translate(170,521)"/>
<path d="M0 0 C0.78375 0.04125 1.5675 0.0825 2.375 0.125 C2.375 1.445 2.375 2.765 2.375 4.125 C-1.255 4.125 -4.885 4.125 -8.625 4.125 C-7.305 3.465 -5.985 2.805 -4.625 2.125 C-2.625 0.125 -2.625 0.125 0 0 Z " fill="#7CC038" transform="translate(768.625,495.875)"/>
<path d="M0 0 C0.66 0 1.32 0 2 0 C2.10026423 5.21374018 1.6304522 9.10864341 0 14 C-0.66 13.67 -1.32 13.34 -2 13 C-1.34 8.71 -0.68 4.42 0 0 Z " fill="#1C6446" transform="translate(732,572)"/>
<path d="M0 0 C0.99 0 1.98 0 3 0 C3.33 0.66 3.66 1.32 4 2 C4.99 1.34 5.98 0.68 7 0 C7.99 0 8.98 0 10 0 C10 0.99 10 1.98 10 3 C8.02 3.99 6.04 4.98 4 6 C3.34 5.34 2.68 4.68 2 4 C2 3.01 2 2.02 2 1 C1.34 0.67 0.68 0.34 0 0 Z " fill="#2F6E59" transform="translate(551,571)"/>
<path d="M0 0 C0.99 0.33 1.98 0.66 3 1 C2.01 2.98 1.02 4.96 0 7 C-2.97 6.505 -2.97 6.505 -6 6 C-4 4 -2 2 0 0 Z " fill="#79BE49" transform="translate(276,433)"/>
<path d="M0 0 C0.66 0 1.32 0 2 0 C1.125 3.875 1.125 3.875 0 5 C-2.67058851 5.14115161 -5.32432238 5.04247107 -8 5 C-8 4.34 -8 3.68 -8 3 C-6.865625 2.690625 -5.73125 2.38125 -4.5625 2.0625 C-1.21224901 1.37075469 -1.21224901 1.37075469 0 0 Z " fill="#1C6652" transform="translate(675,587)"/>
<path d="M0 0 C3.41021743 0.78697325 6.68885166 1.87119943 10 3 C10 3.66 10 4.32 10 5 C3.51707705 5.3669579 3.51707705 5.3669579 1.0625 3.625 C0 2 0 2 0 0 Z " fill="#0D6049" transform="translate(474,587)"/>
<path d="M0 0 C6.40818182 -0.36272727 6.40818182 -0.36272727 8.9375 1.1875 C10.32851983 3.56041618 10.21917317 5.29686424 10 8 C9.52949219 7.59007812 9.05898438 7.18015625 8.57421875 6.7578125 C7.95160156 6.21898437 7.32898438 5.68015625 6.6875 5.125 C6.07261719 4.59132813 5.45773437 4.05765625 4.82421875 3.5078125 C2.86501788 1.8359553 2.86501788 1.8359553 0 0 Z " fill="#20664C" transform="translate(818,572)"/>
<path d="M0 0 C0.33 0.66 0.66 1.32 1 2 C2.89533342 2.46523063 2.89533342 2.46523063 5.0625 2.625 C6.361875 2.74875 7.66125 2.8725 9 3 C9 3.99 9 4.98 9 6 C5.625 6.125 5.625 6.125 2 6 C1.34 5.34 0.68 4.68 0 4 C0 2.68 0 1.36 0 0 Z " fill="#15664E" transform="translate(647,586)"/>
<path d="M0 0 C-2.24529435 3.36794152 -3.31592186 3.71057265 -7 5 C-7.99 5.495 -7.99 5.495 -9 6 C-9 5.34 -9 4.68 -9 4 C-9.66 3.67 -10.32 3.34 -11 3 C-7.48550811 -0.37391222 -4.73940561 -0.27342725 0 0 Z " fill="#447A65" transform="translate(823,571)"/>
<path d="M0 0 C1.32 0.33 2.64 0.66 4 1 C4.1875 3.375 4.1875 3.375 4 6 C3.01 6.66 2.02 7.32 1 8 C0.67 5.36 0.34 2.72 0 0 Z " fill="#407B5D" transform="translate(788,579)"/>
<path d="M0 0 C2.64 0.33 5.28 0.66 8 1 C8.33 2.32 8.66 3.64 9 5 C6.07471973 4.37315423 3.58774327 3.51695295 1 2 C0.67 1.34 0.34 0.68 0 0 Z " fill="#296C56" transform="translate(628,571)"/>
<path d="M0 0 C0.66 0.33 1.32 0.66 2 1 C2.33 2.98 2.66 4.96 3 7 C-2.94 6.01 -2.94 6.01 -9 5 C-9 4.67 -9 4.34 -9 4 C-4.545 3.505 -4.545 3.505 0 3 C0 2.01 0 1.02 0 0 Z " fill="#88C455" transform="translate(724,496)"/>
<path d="M0 0 C1.35015859 4.05047576 0.62084998 6.7920168 0 11 C-0.66 10.01 -1.32 9.02 -2 8 C-2.99 8.66 -3.98 9.32 -5 10 C-3.66511872 6.40608886 -2.03977277 3.24509304 0 0 Z " fill="#AADB56" transform="translate(215,387)"/>
<path d="M0 0 C0.33 0 0.66 0 1 0 C1.66 3.3 2.32 6.6 3 10 C1.68 9.67 0.36 9.34 -1 9 C-2.0326802 6.21176345 -2.04509293 5.1322726 -1.0625 2.25 C-0.711875 1.5075 -0.36125 0.765 0 0 Z " fill="#327357" transform="translate(716,579)"/>
<path d="M0 0 C2 3.875 2 3.875 2 5 C-1.3 5 -4.6 5 -8 5 C-8 4.34 -8 3.68 -8 3 C-5.69 3 -3.38 3 -1 3 C-0.67 2.01 -0.34 1.02 0 0 Z " fill="#05573F" transform="translate(390,580)"/>
<path d="M0 0 C0.66 0 1.32 0 2 0 C2 0.66 2 1.32 2 2 C6.62 2 11.24 2 16 2 C16 2.33 16 2.66 16 3 C15.01257813 3.04898438 14.02515625 3.09796875 13.0078125 3.1484375 C11.72648438 3.22320313 10.44515625 3.29796875 9.125 3.375 C7.21074219 3.47941406 7.21074219 3.47941406 5.2578125 3.5859375 C1.91938301 3.67241106 1.91938301 3.67241106 0 6 C0 4.02 0 2.04 0 0 Z " fill="#145B40" transform="translate(740,579)"/>
<path d="M0 0 C2 4 2 4 1.125 7.25 C0.75375 8.1575 0.3825 9.065 0 10 C-0.99 9.67 -1.98 9.34 -3 9 C-2.01 6.03 -1.02 3.06 0 0 Z " fill="#216C53" transform="translate(380,565)"/>
<path d="M0 0 C5.625 -0.25 5.625 -0.25 9 2 C9 2.99 9 3.98 9 5 C5.12867972 4.42647107 2.91827204 2.51295648 0 0 Z " fill="#226856" transform="translate(459,572)"/>
<path d="M0 0 C0.99 0 1.98 0 3 0 C1.92598892 2.91517292 1.22189824 4.77810176 -1 7 C-1.66 6.67 -2.32 6.34 -3 6 C-1.125 1.125 -1.125 1.125 0 0 Z " fill="#266B49" transform="translate(792,573)"/>
<path d="M0 0 C1.65 0 3.3 0 5 0 C5 0.99 5 1.98 5 3 C5.66 3.33 6.32 3.66 7 4 C4.69 4 2.38 4 0 4 C0 2.68 0 1.36 0 0 Z " fill="#72BE39" transform="translate(744,496)"/>
<path d="M0 0 C3.41021743 0.78697325 6.68885166 1.87119943 10 3 C10 3.33 10 3.66 10 4 C2.25 4.125 2.25 4.125 0 3 C0 2.01 0 1.02 0 0 Z " fill="#15614F" transform="translate(400,595)"/>
<path d="M0 0 C-0.598125 0.28875 -1.19625 0.5775 -1.8125 0.875 C-4.19327792 2.04742026 -4.19327792 2.04742026 -7 4 C-7.99 4 -8.98 4 -10 4 C-10 3.01 -10 2.02 -10 1 C-6.78548731 -0.60725635 -3.56387464 -0.05748185 0 0 Z " fill="#256652" transform="translate(575,572)"/>
<path d="M0 0 C2.5625 2.25 2.5625 2.25 5 5 C4.8125 7.3125 4.8125 7.3125 4 9 C1.24338912 6.51015791 -0.60746455 4.79450934 -1 1 C-0.67 0.67 -0.34 0.34 0 0 Z " fill="#77C14A" transform="translate(659,511)"/>
<path d="M0 0 C0.99 0 1.98 0 3 0 C2.67 1.65 2.34 3.3 2 5 C0.68 5.33 -0.64 5.66 -2 6 C-1.34 4.02 -0.68 2.04 0 0 Z " fill="#1B6E55" transform="translate(371,586)"/>
<path d="M0 0 C1.32 0.33 2.64 0.66 4 1 C4 2.32 4 3.64 4 5 C2.68 5.33 1.36 5.66 0 6 C0 4.02 0 2.04 0 0 Z " fill="#79BB44" transform="translate(769,534)"/>
<path d="M0 0 C0.99 0.495 0.99 0.495 2 1 C2 1.66 2 2.32 2 3 C2.99 2.67 3.98 2.34 5 2 C5 3.98 5 5.96 5 8 C2.5 5.6875 2.5 5.6875 0 3 C0 2.01 0 1.02 0 0 Z " fill="#4C9F56" transform="translate(231,622)"/>
<path d="M0 0 C1.7074998 1.28062485 3.37373596 2.61767557 5 4 C5 4.66 5 5.32 5 6 C3.125 5.75 3.125 5.75 1 5 C-0.25 2.9375 -0.25 2.9375 -1 1 C-0.67 0.67 -0.34 0.34 0 0 Z " fill="#196547" transform="translate(791,585)"/>
<path d="M0 0 C0 0.99 0 1.98 0 3 C-1.65 3.66 -3.3 4.32 -5 5 C-5.66 4.34 -6.32 3.68 -7 3 C-3.375 0 -3.375 0 0 0 Z " fill="#23624D" transform="translate(436,571)"/>
<path d="M0 0 C-1.75 2 -1.75 2 -4 4 C-5.32 4 -6.64 4 -8 4 C-8 2.68 -8 1.36 -8 0 C-2.25 -1.125 -2.25 -1.125 0 0 Z " fill="#6AB93C" transform="translate(732,535)"/>
<path d="M0 0 C0.33 1.32 0.66 2.64 1 4 C-0.98 4.66 -2.96 5.32 -5 6 C-5.66 5.34 -6.32 4.68 -7 4 C-6.030625 3.525625 -5.06125 3.05125 -4.0625 2.5625 C-1.19522563 1.29806053 -1.19522563 1.29806053 0 0 Z " fill="#7BC453" transform="translate(731,530)"/>
<path d="M0 0 C2.99332739 0.9977758 3.94766315 1.7522025 6 4 C4.35 4.66 2.7 5.32 1 6 C0.34 4.35 -0.32 2.7 -1 1 C-0.67 0.67 -0.34 0.34 0 0 Z " fill="#68B440" transform="translate(706,532)"/>
<path d="M0 0 C0.66 0.33 1.32 0.66 2 1 C1.67 1.99 1.34 2.98 1 4 C0.01 4.33 -0.98 4.66 -2 5 C-2 4.34 -2 3.68 -2 3 C-3.98 3 -5.96 3 -8 3 C-8 2.67 -8 2.34 -8 2 C-6.865625 1.855625 -5.73125 1.71125 -4.5625 1.5625 C-1.19222799 1.38828522 -1.19222799 1.38828522 0 0 Z " fill="#48826E" transform="translate(826,587)"/>
<path d="M0 0 C2.52588702 2.36292656 3.88820837 3.66462511 5 7 C4.01 7.33 3.02 7.66 2 8 C0.23537317 4.91190305 0 3.76687864 0 0 Z " fill="#E9F0E1" transform="translate(203,581)"/>
<path d="M0 0 C-2 3 -2 3 -4.625 3.6875 C-5.800625 3.8421875 -5.800625 3.8421875 -7 4 C-7 3.34 -7 2.68 -7 2 C-7.66 1.67 -8.32 1.34 -9 1 C-6.04335481 -0.4783226 -3.25770263 -0.06032783 0 0 Z " fill="#437966" transform="translate(802,571)"/>
<path d="M0 0 C2.97 0 5.94 0 9 0 C9 0.33 9 0.66 9 1 C5.7 1.66 2.4 2.32 -1 3 C-0.67 2.01 -0.34 1.02 0 0 Z " fill="#0E6045" transform="translate(567,581)"/>
<path d="M0 0 C3.375 -0.125 3.375 -0.125 7 0 C7.66 0.66 8.32 1.32 9 2 C8.01 2.66 7.02 3.32 6 4 C3.53199953 2.84826645 1.95216435 1.95216435 0 0 Z " fill="#427C6A" transform="translate(569,571)"/>
<path d="M0 0 C0.66 0.66 1.32 1.32 2 2 C0.35 3.32 -1.3 4.64 -3 6 C-3 4.68 -3 3.36 -3 2 C-2.01 1.34 -1.02 0.68 0 0 Z " fill="#126148" transform="translate(280,555)"/>
<path d="M0 0 C0.33 0.99 0.66 1.98 1 3 C-2 5 -2 5 -5.1875 4.625 C-6.115625 4.41875 -7.04375 4.2125 -8 4 C-8 3.67 -8 3.34 -8 3 C-6.865625 2.690625 -5.73125 2.38125 -4.5625 2.0625 C-1.21224901 1.37075469 -1.21224901 1.37075469 0 0 Z " fill="#1F6F56" transform="translate(451,529)"/>
<path d="M0 0 C2.64752004 2.57784846 4.94432065 4.91648098 7 8 C6.01 8 5.02 8 4 8 C0 2.74285714 0 2.74285714 0 0 Z " fill="#75C33F" transform="translate(647,490)"/>
</svg>
