<?xml version="1.0" encoding="UTF-8"?>
<svg version="1.1" xmlns="http://www.w3.org/2000/svg" width="200" height="200">
<path d="M0 0 C66 0 132 0 200 0 C200 66 200 132 200 200 C134 200 68 200 0 200 C0 134 0 68 0 0 Z " fill="#F1F4F4" transform="translate(0,0)"/>
<path d="M0 0 C4.29574113 0.25269065 6.47518229 0.5568206 9.8125 3.375 C12 6 12 6 14 9 C14.37511719 8.51789063 14.75023438 8.03578125 15.13671875 7.5390625 C20.3232122 1.13759703 20.3232122 1.13759703 25 0 C25.99 0 26.98 0 28 0 C27.74986131 4.2523578 27.43113402 6.47564781 24.6875 9.8125 C20.38692083 13.31297142 17.75754769 14.47646781 12.02734375 14.31640625 C7.5613577 13.61940265 4.80107702 11.07731048 2.1875 7.5625 C1.00668998 5.01443628 0.39605699 2.77239893 0 0 Z " fill="#216851" transform="translate(85,84)"/>
<path d="M0 0 C10 0 10 0 13.125 1.0625 C15 3 15 3 15.5625 6.5 C15 10 15 10 13.4375 11.9375 C10.19917389 13.34907805 7.49186021 13.20145347 4 13 C4 15.31 4 17.62 4 20 C2.68 20 1.36 20 0 20 C0 13.4 0 6.8 0 0 Z " fill="#1F4A3D" transform="translate(27,106)"/>
<path d="M0 0 C1.32 0 2.64 0 4 0 C4 6.27 4 12.54 4 19 C2.35 19 0.7 19 -1 19 C-2.765625 16.8828125 -2.765625 16.8828125 -4.25 14.125 C-4.75015625 13.22007813 -5.2503125 12.31515625 -5.765625 11.3828125 C-6.51991093 9.92675421 -7.26664429 8.46671143 -8 7 C-8.33 10.96 -8.66 14.92 -9 19 C-9.99 19 -10.98 19 -12 19 C-12 13.06 -12 7.12 -12 1 C-10.35 1 -8.7 1 -7 1 C-5.19921875 3.1875 -5.19921875 3.1875 -3.6875 6 C-3.17574219 6.928125 -2.66398437 7.85625 -2.13671875 8.8125 C-1.76160156 9.534375 -1.38648437 10.25625 -1 11 C-0.67 7.37 -0.34 3.74 0 0 Z " fill="#1D483B" transform="translate(119,106)"/>
<path d="M0 0 C6.0546875 -0.1953125 6.0546875 -0.1953125 8 0 C10 2 10 2 10.1953125 4.3828125 C10.17210937 5.28773437 10.14890625 6.19265625 10.125 7.125 C10.10695312 8.03507812 10.08890625 8.94515625 10.0703125 9.8828125 C10.04710937 10.58148438 10.02390625 11.28015625 10 12 C10.66 12 11.32 12 12 12 C12 12.66 12 13.32 12 14 C10.948125 13.979375 9.89625 13.95875 8.8125 13.9375 C5.14024877 13.87001107 5.14024877 13.87001107 2.1875 14.625 C1.1046875 14.810625 1.1046875 14.810625 0 15 C-2 13 -2 13 -2.1875 9.9375 C-2 7 -2 7 -1 6 C1.33297433 5.95907063 3.66705225 5.95758277 6 6 C6 4.68 6 3.36 6 2 C5.4225 2.33 4.845 2.66 4.25 3 C2 4 2 4 -2 4 C-1.34 2.68 -0.68 1.36 0 0 Z " fill="#1B4638" transform="translate(161,111)"/>
<path d="M0 0 C1.32 0 2.64 0 4 0 C4.33 2.31 4.66 4.62 5 7 C5.33 6.67 5.66 6.34 6 6 C9 5.875 9 5.875 12 6 C13 7 13 7 13.09765625 9.94140625 C13.08605469 11.13636719 13.07445313 12.33132812 13.0625 13.5625 C13.05347656 14.76003906 13.04445313 15.95757812 13.03515625 17.19140625 C13.02355469 18.11824219 13.01195313 19.04507813 13 20 C12.01 20 11.02 20 10 20 C9.67 16.7 9.34 13.4 9 10 C7.68 10 6.36 10 5 10 C4.67 13.63 4.34 17.26 4 21 C2.68 21 1.36 21 0 21 C0 14.07 0 7.14 0 0 Z " fill="#2D5549" transform="translate(74,105)"/>
<path d="M0 0 C2 2 2 2 2.1953125 4.3828125 C2.17210937 5.28773437 2.14890625 6.19265625 2.125 7.125 C2.10695313 8.03507812 2.08890625 8.94515625 2.0703125 9.8828125 C2.04710937 10.58148438 2.02390625 11.28015625 2 12 C2.66 12 3.32 12 4 12 C4 12.66 4 13.32 4 14 C3.13375 13.979375 2.2675 13.95875 1.375 13.9375 C-1.99902387 13.90396804 -1.99902387 13.90396804 -5.25 14.625 C-6.1575 14.74875 -7.065 14.8725 -8 15 C-10 13 -10 13 -10.125 9.875 C-10.08375 8.92625 -10.0425 7.9775 -10 7 C-7.04335481 5.5216774 -4.25770263 5.93967217 -1 6 C-1.33 4.68 -1.66 3.36 -2 2 C-2.598125 2.33 -3.19625 2.66 -3.8125 3 C-6 4 -6 4 -9 4 C-9 3.01 -9 2.02 -9 1 C-5.98675805 -0.50662097 -3.31713623 -0.17770373 0 0 Z " fill="#164234" transform="translate(54,111)"/>
<path d="M0 0 C3.5 0.4375 3.5 0.4375 5.4375 1.625 C6.82851983 3.99791618 6.71917317 5.73436424 6.5 8.4375 C3.53 8.4375 0.56 8.4375 -2.5 8.4375 C-2.17 9.4275 -1.84 10.4175 -1.5 11.4375 C1.14 11.4375 3.78 11.4375 6.5 11.4375 C4.42585277 13.89574857 3.18484266 15.2834104 0 16 C-2.5 15.4375 -2.5 15.4375 -4.8125 13.3125 C-6.78569575 9.95075909 -7.07104749 8.27167603 -6.5 4.4375 C-4.86658084 0.78632776 -4.0205891 0.50257364 0 0 Z " fill="#3A5F53" transform="translate(131.5,110.5625)"/>
<path d="M0 0 C-0.25013869 4.2523578 -0.56886598 6.47564781 -3.3125 9.8125 C-7.38688249 13.12885784 -9.70415117 14.29421382 -15 14 C-13.67474436 8.93993301 -11.65609819 5.74112373 -8 2 C-5.00313201 0.43021201 -3.38755275 0 0 0 Z " fill="#1B634C" transform="translate(113,84)"/>
<path d="M0 0 C2.05078125 0.03255208 4.1015625 0.06510417 6.15234375 0.09765625 C6.81234375 1.41765625 7.47234375 2.73765625 8.15234375 4.09765625 C5.48567708 3.43098958 2.81901042 2.76432292 0.15234375 2.09765625 C0.15234375 3.08765625 0.15234375 4.07765625 0.15234375 5.09765625 C2.79234375 5.75765625 5.43234375 6.41765625 8.15234375 7.09765625 C8.48234375 8.74765625 8.81234375 10.39765625 9.15234375 12.09765625 C6.72014544 14.34276238 5.43452847 15.06886189 2.08984375 15.41015625 C-0.84765625 15.09765625 -0.84765625 15.09765625 -3.84765625 13.09765625 C-3.84765625 12.43765625 -3.84765625 11.77765625 -3.84765625 11.09765625 C-0.87765625 11.42765625 2.09234375 11.75765625 5.15234375 12.09765625 C5.15234375 11.10765625 5.15234375 10.11765625 5.15234375 9.09765625 C4.03859375 8.97390625 2.92484375 8.85015625 1.77734375 8.72265625 C-1.84765625 8.09765625 -1.84765625 8.09765625 -3.84765625 6.09765625 C-3.12417691 0.16512563 -3.12417691 0.16512563 0 0 Z " fill="#1A4638" transform="translate(62.84765625,110.90234375)"/>
<path d="M0 0 C1.32 0 2.64 0 4 0 C4.33 3.63 4.66 7.26 5 11 C5.99 11 6.98 11 8 11 C9.14814997 8.70370006 9.30769809 6.92301914 9.5625 4.375 C9.64628906 3.55773437 9.73007813 2.74046875 9.81640625 1.8984375 C9.87699219 1.27195312 9.93757813 0.64546875 10 0 C10.99 0 11.98 0 13 0 C13 4.62 13 9.24 13 14 C11.68 13.67 10.36 13.34 9 13 C8.34 13.66 7.68 14.32 7 15 C4.5 14.8125 4.5 14.8125 2 14 C-0.28062828 10.57905758 -0.21925007 9.31812778 -0.125 5.3125 C-0.10695313 4.31863281 -0.08890625 3.32476562 -0.0703125 2.30078125 C-0.04710938 1.54152344 -0.02390625 0.78226562 0 0 Z " fill="#1E493B" transform="translate(90,111)"/>
<path d="M0 0 C0 0.99 0 1.98 0 3 C0.99 3 1.98 3 3 3 C3 3.99 3 4.98 3 6 C2.01 6 1.02 6 0 6 C0 8.97 0 11.94 0 15 C0.99 15 1.98 15 3 15 C2.67 15.99 2.34 16.98 2 18 C-2.875 17.125 -2.875 17.125 -4 16 C-4.07226502 14.14712498 -4.0838122 12.29166122 -4.0625 10.4375 C-4.05347656 9.42558594 -4.04445312 8.41367188 -4.03515625 7.37109375 C-4.02355469 6.58863281 -4.01195312 5.80617188 -4 5 C-4.66 5 -5.32 5 -6 5 C-6 3 -6 3 -4.6875 1.375 C-3 0 -3 0 0 0 Z " fill="#254E41" transform="translate(145,108)"/>
<path d="M0 0 C0.99 0 1.98 0 3 0 C5.22597431 4.32100896 5.13071827 7.30317025 4 12 C2.4375 13.9375 2.4375 13.9375 1 15 C-1.58075402 12.41924598 -2.24052758 10.49032019 -2.3125 6.9375 C-2 3 -2 3 0 0 Z " fill="#2C7059" transform="translate(98,75)"/>
<path d="M0 0 C2.97 0 5.94 0 9 0 C9 0.99 9 1.98 9 3 C7.68 3.33 6.36 3.66 5 4 C4.67 7.63 4.34 11.26 4 15 C2.68 15 1.36 15 0 15 C0 10.05 0 5.1 0 0 Z " fill="#275044" transform="translate(149,111)"/>
<path d="M0 0 C1.134375 0.020625 2.26875 0.04125 3.4375 0.0625 C3.7675 2.3725 4.0975 4.6825 4.4375 7.0625 C1.4375 9.0625 1.4375 9.0625 -1.1875 8.75 C-3.5625 8.0625 -3.5625 8.0625 -4.5625 7.0625 C-4.6875 4.0625 -4.6875 4.0625 -4.5625 1.0625 C-3.5625 0.0625 -3.5625 0.0625 0 0 Z " fill="#204B3D" transform="translate(163.5625,116.9375)"/>
<path d="M0 0 C0.99 0 1.98 0 3 0 C3.185625 0.61875 3.37125 1.2375 3.5625 1.875 C5.71437233 5.05602866 8.37533763 5.19451947 12 6 C12 6.99 12 7.98 12 9 C9.03 8.67 6.06 8.34 3 8 C2.67 8.99 2.34 9.98 2 11 C2 10.34 2 9.68 2 9 C1.34 9 0.68 9 0 9 C0 6.03 0 3.06 0 0 Z " fill="#D5DDDB" transform="translate(56,114)"/>
<path d="M0 0 C0.66 0.33 1.32 0.66 2 1 C3.32860925 1.35169068 4.66158328 1.68770276 6 2 C6 2.99 6 3.98 6 5 C6.66 5.33 7.32 5.66 8 6 C7.67 6.66 7.34 7.32 7 8 C3.5625 8.75 3.5625 8.75 0 9 C-2 7 -2 7 -2.125 3.875 C-2.08375 2.92625 -2.0425 1.9775 -2 1 C-1.34 0.67 -0.68 0.34 0 0 Z " fill="#5A7970" transform="translate(46,117)"/>
<path d="M0 0 C0.33 1.65 0.66 3.3 1 5 C-1.43219831 7.24510613 -2.71781528 7.97120564 -6.0625 8.3125 C-9 8 -9 8 -12 6 C-12 5.34 -12 4.68 -12 4 C-9.03 4.33 -6.06 4.66 -3 5 C-3 4.01 -3 3.02 -3 2 C-4.65 2 -6.3 2 -8 2 C-8 1.67 -8 1.34 -8 1 C-5.23735711 0.40267181 -2.83967231 0 0 0 Z " fill="#275144" transform="translate(71,118)"/>
<path d="M0 0 C0.66 0 1.32 0 2 0 C2 2.64 2 5.28 2 8 C2.66 8.33 3.32 8.66 4 9 C3.67 12.3 3.34 15.6 3 19 C2.01 19 1.02 19 0 19 C0 12.73 0 6.46 0 0 Z " fill="#0D3C2D" transform="translate(75,106)"/>
<path d="M0 0 C0.99 0 1.98 0 3 0 C3 4.62 3 9.24 3 14 C2.01 14 1.02 14 0 14 C0 9.38 0 4.76 0 0 Z " fill="#0A392A" transform="translate(100,111)"/>
<path d="M0 0 C2.31 0 4.62 0 7 0 C7.042721 1.66611905 7.04063832 3.33382885 7 5 C6 6 6 6 2.9375 6.0625 C1.4834375 6.0315625 1.4834375 6.0315625 0 6 C0 4.02 0 2.04 0 0 Z " fill="#E0E7E5" transform="translate(31,110)"/>
<path d="M0 0 C0.99 0 1.98 0 3 0 C2.73781251 4.4571874 2.42288711 6.51522698 -0.5625 9.9375 C-1.366875 10.618125 -2.17125 11.29875 -3 12 C-3.66 11.67 -4.32 11.34 -5 11 C-4.319375 9.948125 -4.319375 9.948125 -3.625 8.875 C-1.98313057 5.97015409 -0.96322901 3.1860652 0 0 Z " fill="#174637" transform="translate(110,84)"/>
<path d="M0 0 C4 0 4 0 5.75 1.5 C6.1625 1.995 6.575 2.49 7 3 C7.66 2.34 8.32 1.68 9 1 C9 4.20395416 8.25664978 6.09399739 7 9 C3 4.25 3 4.25 3 2 C2.01 1.67 1.02 1.34 0 1 C0 0.67 0 0.34 0 0 Z " fill="#D2DFDC" transform="translate(93,86)"/>
<path d="M0 0 C0.33 0.66 0.66 1.32 1 2 C1.8971875 1.505 1.8971875 1.505 2.8125 1 C5 0 5 0 8 0 C8.33 1.32 8.66 2.64 9 4 C6.03 3.67 3.06 3.34 0 3 C0 2.01 0 1.02 0 0 Z " fill="#BECBC8" transform="translate(44,113)"/>
<path d="M0 0 C0.33 0.66 0.66 1.32 1 2 C1.66 2 2.32 2 3 2 C3 5.3 3 8.6 3 12 C-0.10895188 7.85473083 -0.62164326 6.01322676 -1 1 C-0.67 0.67 -0.34 0.34 0 0 Z " fill="#CFD9D7" transform="translate(138,111)"/>
<path d="M0 0 C1.32 0 2.64 0 4 0 C4.33 1.98 4.66 3.96 5 6 C3.68 5.67 2.36 5.34 1 5 C0.67 3.35 0.34 1.7 0 0 Z " fill="#113E30" transform="translate(133,112)"/>
<path d="M0 0 C0.99 0 1.98 0 3 0 C3 1.32 3 2.64 3 4 C0.36 3.67 -2.28 3.34 -5 3 C-4.360625 2.690625 -3.72125 2.38125 -3.0625 2.0625 C-1.06389179 1.1654837 -1.06389179 1.1654837 0 0 Z " fill="#CED8D6" transform="translate(164,113)"/>
<path d="M0 0 C-2.35968744 2.09749995 -3.54616994 2.96905704 -6.75 3.1875 C-7.86375 3.0946875 -7.86375 3.0946875 -9 3 C-6.27596221 -1.08605669 -4.4643819 -1.38549783 0 0 Z " fill="#2F564A" transform="translate(138,123)"/>
<path d="M0 0 C2.475 0.495 2.475 0.495 5 1 C5 1.99 5 2.98 5 4 C3.35 3.67 1.7 3.34 0 3 C0 2.01 0 1.02 0 0 Z " fill="#CED7D5" transform="translate(63,113)"/>
<path d="M0 0 C2.64 0 5.28 0 8 0 C8 0.99 8 1.98 8 3 C3.44615385 3.36923077 3.44615385 3.36923077 1.1875 1.5 C0.5996875 0.7575 0.5996875 0.7575 0 0 Z " fill="#2D5549" transform="translate(150,111)"/>
<path d="M0 0 C1.32 0 2.64 0 4 0 C3.67 1.32 3.34 2.64 3 4 C1.68 3.67 0.36 3.34 -1 3 C-0.67 2.01 -0.34 1.02 0 0 Z " fill="#D5DEDC" transform="translate(163,119)"/>
</svg>
